<?xml version="1.0" encoding="iso-8859-1"?>
<!-- Generator: Adobe Illustrator 19.0.0, SVG Export Plug-In . SVG Version: 6.00 Build 0)  -->
<svg width="264" height="480" xmlns="http://www.w3.org/2000/svg" version="1.1" xml:space="preserve">
<g transform="translate(-216,108) rotate(-90,240,132)">
<g>
	<path style="fill:#78B9EB;" d="M48,220.672h64v32H48V220.672z"/>
	<path style="fill:#78B9EB;" d="M112,220.672h64v32h-64V220.672z"/>
	<path style="fill:#78B9EB;" d="M176,220.672h64v32h-64V220.672z"/>
	<path style="fill:#78B9EB;" d="M240,220.672h64v32h-64V220.672z"/>
	<path style="fill:#78B9EB;" d="M304,220.672h64v32h-64V220.672z"/>
	<path style="fill:#78B9EB;" d="M368,220.672h64v32h-64V220.672z"/>
</g>
<g>
	<path style="fill:#1E81CE;" d="M456,108.672H24c-13.255,0-24,10.745-24,24v127.136c0.018,13.725,11.139,24.846,24.864,24.864
		h430.272c13.725-0.018,24.846-11.139,24.864-24.864V132.672C480,119.417,469.255,108.672,456,108.672L456,108.672z M464,259.808
		c-0.004,4.894-3.97,8.86-8.864,8.864H24.864c-4.894-0.004-8.86-3.97-8.864-8.864V132.672c0-4.418,3.582-8,8-8c0,0,0,0,0,0h432
		c4.418,0,8,3.582,8,8V259.808z"/>
	<path style="fill:#1E81CE;" d="M432,212.672H48c-4.418,0-8,3.582-8,8v32c0,4.418,3.582,8,8,8h384c4.418,0,8-3.582,8-8v-32
		C440,216.254,436.418,212.672,432,212.672z M56,228.672h48v16H56V228.672z M120,228.672h48v16h-48V228.672z M184,228.672h48v16h-48
		V228.672z M248,228.672h48v16h-48V228.672z M312,228.672h48v16h-48V228.672z M424,244.672h-48v-16h48V244.672z"/>
	<path style="fill:#1E81CE;" d="M40,156.672h32v16H40V156.672z"/>
	<path style="fill:#1E81CE;" d="M88,156.672h16v16H88V156.672z"/>
	<path style="fill:#1E81CE;" d="M432,140.672h16v16h-16V140.672z"/>
	<path style="fill:#1E81CE;" d="M432,164.672h16v16h-16V164.672z"/>
	<path style="fill:#1E81CE;" d="M408,140.672h16v16h-16V140.672z"/>
	<path style="fill:#1E81CE;" d="M85.656,306.328l-11.312-11.312c-11.96,11.28-12.512,30.12-1.232,42.08
		c0.398,0.422,0.809,0.833,1.232,1.232c2.063,1.596,3.228,4.09,3.128,6.696c-0.528,5.48-7.52,11.376-9.936,13.008l4.464,6.64
		l4.44,6.656c8.721-5.642,14.825-14.537,16.952-24.704c0.607-7.383-2.252-14.628-7.736-19.608
		c-5.713-5.032-6.265-13.742-1.234-19.454C84.807,307.125,85.219,306.713,85.656,306.328L85.656,306.328z"/>
	<path style="fill:#1E81CE;" d="M149.656,306.328l-11.312-11.312c-11.96,11.28-12.512,30.12-1.232,42.08
		c0.398,0.422,0.809,0.833,1.232,1.232c2.063,1.596,3.228,4.09,3.128,6.696c-0.528,5.48-7.52,11.376-9.936,13.008l4.464,6.64
		l4.44,6.656c8.721-5.642,14.825-14.537,16.952-24.704c0.607-7.383-2.252-14.628-7.736-19.608
		c-5.713-5.032-6.265-13.742-1.234-19.454C148.807,307.125,149.219,306.713,149.656,306.328L149.656,306.328z"/>
	<path style="fill:#1E81CE;" d="M213.656,306.328l-11.312-11.312c-11.96,11.28-12.512,30.12-1.232,42.08
		c0.398,0.422,0.809,0.833,1.232,1.232c2.063,1.596,3.228,4.09,3.128,6.696c-0.528,5.48-7.52,11.376-9.936,13.008l4.464,6.64
		l4.44,6.656c8.721-5.642,14.825-14.537,16.952-24.704c0.607-7.383-2.252-14.628-7.736-19.608
		c-5.713-5.032-6.265-13.742-1.234-19.454C212.807,307.125,213.219,306.713,213.656,306.328L213.656,306.328z"/>
	<path style="fill:#1E81CE;" d="M277.656,306.328l-11.312-11.312c-11.96,11.28-12.512,30.12-1.232,42.08
		c0.398,0.422,0.809,0.833,1.232,1.232c2.063,1.596,3.228,4.09,3.128,6.696c-0.528,5.48-7.52,11.376-9.936,13.008l4.464,6.64
		l4.44,6.656c8.721-5.642,14.825-14.537,16.952-24.704c0.607-7.383-2.252-14.628-7.736-19.608
		c-5.713-5.032-6.265-13.742-1.234-19.454C276.807,307.125,277.219,306.713,277.656,306.328L277.656,306.328z"/>
	<path style="fill:#1E81CE;" d="M341.656,306.328l-11.312-11.312c-11.96,11.28-12.512,30.12-1.232,42.08
		c0.398,0.422,0.809,0.833,1.232,1.232c2.063,1.596,3.228,4.09,3.128,6.696c-0.528,5.48-7.52,11.376-9.936,13.008l4.464,6.64
		l4.44,6.656c8.721-5.642,14.825-14.537,16.952-24.704c0.607-7.383-2.252-14.628-7.736-19.608
		c-5.713-5.032-6.265-13.742-1.234-19.454C340.807,307.125,341.219,306.713,341.656,306.328L341.656,306.328z"/>
	<path style="fill:#1E81CE;" d="M405.656,306.328l-11.312-11.312c-11.96,11.28-12.512,30.12-1.232,42.08
		c0.398,0.422,0.809,0.833,1.232,1.232c2.063,1.596,3.228,4.09,3.128,6.696c-0.528,5.48-7.52,11.376-9.936,13.008l4.464,6.64
		l4.44,6.656c8.721-5.642,14.825-14.537,16.952-24.704c0.607-7.383-2.252-14.628-7.736-19.608
		c-5.713-5.032-6.265-13.742-1.234-19.454C404.807,307.125,405.219,306.713,405.656,306.328L405.656,306.328z"/>
</g>
</g>
</svg>
