<svg id="Capa_1" enable-background="new 0 0 512 512" height="512" viewBox="0 0 512 512" width="512" xmlns="http://www.w3.org/2000/svg"><g><g><path d="m338.137 388.194h-164.274c-11.046 0-20-8.954-20-20 0-11.046 8.954-20 20-20h164.274c11.046 0 20 8.954 20 20 0 11.046-8.954 20-20 20z" fill="#dbf2d3"/><path d="m338.137 428.194h-164.274c-11.046 0-20-8.954-20-20 0-11.046 8.954-20 20-20h164.274c11.046 0 20 8.954 20 20 0 11.046-8.954 20-20 20z" fill="#dbf2d3"/><path d="m256 484.194c-30.928 0-56-25.072-56-56h112c0 30.928-25.072 56-56 56z" fill="#edf8e9"/><path d="m156.788 288.877c16.752 15.385 26.763 36.698 27.782 59.317h142.976c1.256-22.611 11.31-43.871 27.992-59.327 30.009-27.803 49.345-68.135 49.345-111.726 0-82.478-66.656-149.335-148.883-149.335-82.223 0-148.883 66.857-148.883 149.335 0 43.74 19.48 84.009 49.671 111.736z" fill="#fff"/></g><g fill="#a6de92"><path d="m362.334 296.202c33.395-30.94 52.548-74.336 52.548-119.062 0-87.857-71.274-159.334-158.883-159.334s-158.882 71.477-158.882 159.335c0 44.812 19.284 88.223 52.907 119.101 12.305 11.3 20.378 25.93 23.349 41.965-16.316.264-29.51 13.61-29.51 29.988 0 7.678 2.902 14.688 7.663 20-4.761 5.312-7.663 12.322-7.663 20 0 16.542 13.458 30 30 30h16.894c4.833 31.664 32.249 56 65.243 56s60.41-24.336 65.243-56h16.894c16.542 0 30-13.458 30-30 0-7.678-2.902-14.688-7.663-20 4.761-5.312 7.663-12.322 7.663-20 0-16.302-13.072-29.599-29.284-29.982 3.122-16.027 11.242-30.671 23.481-42.011zm-106.334 177.992c-21.931 0-40.327-15.428-44.905-36h89.811c-4.579 20.572-22.975 36-44.906 36zm82.137-56h-164.274c-5.514 0-10-4.486-10-10s4.486-10 10-10h164.274c5.514 0 10 4.486 10 10s-4.486 10-10 10zm10-50c0 5.514-4.486 10-10 10h-164.274c-5.514 0-10-4.486-10-10s4.486-10 10-10h164.274c5.514 0 10 4.486 10 10zm.605-86.663c-16.351 15.149-26.871 35-30.196 56.663h-124.892c-3.153-21.706-13.638-41.562-30.102-56.683-29.51-27.101-46.435-65.143-46.435-104.371 0-76.829 62.303-139.334 138.883-139.334s138.883 62.505 138.883 139.334c0 39.174-16.818 77.224-46.141 104.391z"/><path d="m256 127.673c12.792 0 23.2 9.03 23.2 20.13 0 5.523 4.477 10 10 10s10-4.477 10-10c0-18.93-14.187-34.83-33.2-39.033v-3.63c0-5.523-4.477-10-10-10s-10 4.477-10 10v3.63c-19.013 4.204-33.2 20.103-33.2 39.033 0 22.128 19.379 40.13 43.2 40.13 12.792 0 23.2 9.03 23.2 20.13s-10.407 20.13-23.2 20.13-23.2-9.03-23.2-20.13c0-5.523-4.477-10-10-10s-10 4.477-10 10c0 18.929 14.187 34.829 33.2 39.033v2.043c0 5.523 4.477 10 10 10s10-4.477 10-10v-2.043c19.013-4.204 33.2-20.103 33.2-39.033 0-22.128-19.379-40.13-43.2-40.13-12.792 0-23.2-9.03-23.2-20.13s10.408-20.13 23.2-20.13z"/><path d="m502 167.141h-40.478c-5.523 0-10 4.477-10 10s4.477 10 10 10h40.478c5.523 0 10-4.477 10-10s-4.477-10-10-10z"/><path d="m454.364 129.514c2.561 0 5.122-.978 7.075-2.933l26.021-26.046c3.903-3.907 3.9-10.239-.007-14.142s-10.238-3.901-14.142.007l-26.021 26.046c-3.903 3.907-3.9 10.239.007 14.143 1.952 1.95 4.51 2.925 7.067 2.925z"/><path d="m461.439 227.701c-3.903-3.907-10.236-3.91-14.142-.007-3.907 3.903-3.911 10.235-.007 14.142l26.021 26.046c1.953 1.955 4.514 2.933 7.075 2.933 2.557 0 5.115-.975 7.067-2.925 3.907-3.903 3.911-10.235.007-14.143z"/><path d="m60.478 177.141c0-5.523-4.477-10-10-10h-40.478c-5.523 0-10 4.477-10 10s4.477 10 10 10h40.478c5.523 0 10-4.477 10-10z"/><path d="m38.689 86.4c-3.903-3.907-10.235-3.91-14.142-.007s-3.911 10.235-.007 14.142l26.021 26.046c1.953 1.955 4.514 2.933 7.075 2.933 2.558 0 5.116-.975 7.067-2.925 3.907-3.903 3.911-10.235.007-14.143z"/><path d="m50.561 227.701-26.021 26.046c-3.903 3.907-3.9 10.239.007 14.143 1.952 1.95 4.51 2.925 7.067 2.925 2.561 0 5.122-.978 7.075-2.933l26.021-26.046c3.903-3.907 3.9-10.239-.007-14.142s-10.239-3.902-14.142.007z"/></g></g></svg>