<svg id="Layer_1" enable-background="new 0 0 512 512" height="512" viewBox="0 0 512 512" width="512" xmlns="http://www.w3.org/2000/svg"><g><g id="XMLID_370_"><g id="XMLID_566_"><g id="XMLID_577_"><g id="XMLID_586_"><g id="XMLID_587_"><g id="XMLID_588_"><g id="XMLID_589_"><g id="XMLID_590_"><g id="XMLID_591_"><g id="XMLID_592_"><g id="XMLID_593_"><g id="XMLID_594_"><g id="XMLID_595_"><g id="XMLID_596_"><circle id="XMLID_597_" cx="256" cy="256" fill="#fedd55" r="256"/></g></g></g></g></g></g></g></g></g></g></g></g></g></g><path d="m512 256c0-44.694-11.465-86.706-31.597-123.275l-42.136-42.136-364.535 330.822 58.992 58.992c36.57 20.132 78.582 31.597 123.276 31.597 141.385 0 256-114.615 256-256z" fill="#ffc627"/><g><g><path d="m88.555 110.846h334.889v297.311h-334.889z" fill="#fff"/><g><path d="m256 110.85h167.44v297.31h-167.44z" fill="#e9edf5"/></g><path d="m76.232 97.593v323.818h359.535v-323.818zm162.863 290.008h-129.052v-256.198h129.052zm162.862 0h-129.052v-256.198h129.052z" fill="#9e653e"/><path d="m256 97.59v323.82h179.77v-323.82zm16.91 33.81h129.05v256.2h-129.05z" fill="#835637"/></g><g><g><path d="m307.5 129.331s-1.2 121.413 93.134 167.746c0 0-46.467 32.667-55.134 124.333h92.767v-292.08h-130.767z" fill="#00459f"/><path d="m377.814 323.494h60.453v-38.667h-60.453c-8.182 0-14.814 6.633-14.814 14.814v9.038c0 8.183 6.633 14.815 14.814 14.815z" fill="#ff8900"/></g><g><g><path d="m204.5 129.331s1.2 121.413-93.134 167.746c0 0 46.467 32.667 55.134 124.333h-92.768v-292.08h130.768z" fill="#005fd2"/></g><path d="m134.186 323.494h-60.454v-38.667h60.453c8.182 0 14.814 6.633 14.814 14.814v9.038c.001 8.183-6.632 14.815-14.813 14.815z" fill="#ffaa20"/></g></g><g><g><g><path d="m73.732 90.589h364.535v45.477h-364.535z" fill="#ff908a"/></g></g></g><g><path d="m256 90.59h182.27v45.48h-182.27z" fill="#fa4c4f"/></g></g></g></svg>