<svg xmlns="http://www.w3.org/2000/svg" xmlns:xlink="http://www.w3.org/1999/xlink" version="1.1" x="0px" y="0px" viewBox="0 0 1024 1280" style="enable-background:new 0 0 1024 1024;" xml:space="preserve"><g><path d="M586.5,417.2L550.6,438L586.5,417.2L586.5,417.2z M586.5,706l-35.9,20.7L586.5,706L586.5,706z M586.5,417.2L550.6,438   L586.5,417.2L586.5,417.2z M586.5,706l-35.9,20.7L586.5,706L586.5,706z M586.5,417.2L550.6,438L586.5,417.2L586.5,417.2z    M586.5,706l-35.9,20.7L586.5,706L586.5,706z M586.5,417.2L550.6,438L586.5,417.2L586.5,417.2z M586.5,706l-35.9,20.7L586.5,706   L586.5,706z M586.5,417.2L550.6,438L586.5,417.2L586.5,417.2z M586.5,706l-35.9,20.7L586.5,706L586.5,706z M586.5,417.2L550.6,438   L586.5,417.2L586.5,417.2z M586.5,706l-35.9,20.7L586.5,706L586.5,706z M586.5,417.2L550.6,438L586.5,417.2L586.5,417.2z    M586.5,706l-35.9,20.7L586.5,706L586.5,706z M586.5,417.2L550.6,438L586.5,417.2L586.5,417.2z M586.5,706l-35.9,20.7L586.5,706   L586.5,706z M586.5,417.2L550.6,438L586.5,417.2L586.5,417.2z M586.5,706l-35.9,20.7L586.5,706L586.5,706z M586.5,417.2L550.6,438   L586.5,417.2L586.5,417.2z M586.5,706l-35.9,20.7L586.5,706L586.5,706z M586.5,417.2L550.6,438L586.5,417.2L586.5,417.2z    M550.6,726.8l35.9-20.7h0L550.6,726.8z M795.9,280l-276.6,13.9L706.1,186l-11.3-19.5l-5-8.6l-5-8.7l-21.7-37.7h0l-10-17.3   l-11.8-20.5L228.1,312.2v143l276.6-13.9L228.1,601v143l276.6-13.9L318.8,837.4l11.8,20.4l5,8.7l5,8.7l21.7,37.6l5,8.7l5,8.7   l11.4,19.7l412.2-238v-143l-276.6,13.9L795.9,423V280z M775.9,411.4L473.4,586.1l-10.8,6.2l-25.1,14.5l43.8-2.2L745,591.4h0   l30.9-1.6v110.4L391,922.4l-20.7-35.9l-5.1-8.9L348,847.8l-1.8-3.1l204.4-118l35.9-20.7h0l-43.8,2.2h0L279,721.4h0l-30.9,1.5V612.6   L550.6,438l35.9-20.7h0l-43.8,2.2h0L279,432.6h0l-30.9,1.5V323.8L633.9,101l1.8,3.2l36.7,63.7l5,8.6l1.3,2.2L473.4,297.2L437.5,318   l43.8-2.2h0L745,302.6l30.9-1.5V411.4z M586.5,706l-35.9,20.7L586.5,706L586.5,706z M586.5,417.2L550.6,438L586.5,417.2   L586.5,417.2z M586.5,706l-35.9,20.7L586.5,706L586.5,706z M586.5,417.2L550.6,438L586.5,417.2L586.5,417.2z M586.5,706l-35.9,20.7   L586.5,706L586.5,706z M586.5,417.2L550.6,438L586.5,417.2L586.5,417.2z M586.5,706l-35.9,20.7L586.5,706L586.5,706z M586.5,417.2   L550.6,438L586.5,417.2L586.5,417.2z M586.5,706l-35.9,20.7L586.5,706L586.5,706z M586.5,417.2L550.6,438L586.5,417.2L586.5,417.2z    M586.5,706l-35.9,20.7L586.5,706L586.5,706z M586.5,417.2L550.6,438L586.5,417.2L586.5,417.2z M586.5,706l-35.9,20.7L586.5,706   L586.5,706z M586.5,417.2L550.6,438L586.5,417.2L586.5,417.2z M586.5,706l-35.9,20.7L586.5,706L586.5,706z M586.5,417.2L550.6,438   L586.5,417.2L586.5,417.2z M586.5,706l-35.9,20.7L586.5,706L586.5,706z M586.5,417.2L550.6,438L586.5,417.2L586.5,417.2z    M586.5,706l-35.9,20.7L586.5,706L586.5,706z M586.5,417.2L550.6,438L586.5,417.2L586.5,417.2z"/><path d="M738.9,388.5c0,7.1-5.8,12.9-12.9,12.9s-12.9-5.8-12.9-12.9s5.8-12.9,12.9-12.9S738.9,381.4,738.9,388.5z"/><path d="M677.8,423.8c0,7.1-5.8,12.9-12.9,12.9c-7.1,0-12.9-5.8-12.9-12.9s5.8-12.9,12.9-12.9C672,410.9,677.8,416.7,677.8,423.8z"/><path d="M616.6,459.1c0,7.1-5.8,12.9-12.9,12.9s-12.9-5.8-12.9-12.9c0-7.1,5.8-12.9,12.9-12.9S616.6,452,616.6,459.1z"/><path d="M555.5,494.4c0,7.1-5.8,12.9-12.9,12.9c-7.1,0-12.9-5.8-12.9-12.9c0-7.1,5.8-12.9,12.9-12.9   C549.7,481.5,555.5,487.3,555.5,494.4z"/><path d="M494.3,529.7c0,7.1-5.8,12.9-12.9,12.9c-7.1,0-12.9-5.8-12.9-12.9s5.8-12.9,12.9-12.9C488.5,516.8,494.3,522.6,494.3,529.7   z"/><path d="M433.2,564.9c0,7.1-5.8,12.9-12.9,12.9s-12.9-5.8-12.9-12.9c0-7.1,5.8-12.9,12.9-12.9S433.2,557.8,433.2,564.9z"/><path d="M372.1,600.2c0,7.1-5.8,12.9-12.9,12.9s-12.9-5.8-12.9-12.9s5.8-12.9,12.9-12.9S372.1,593.1,372.1,600.2z"/><path d="M310.9,635.5c0,7.1-5.8,12.9-12.9,12.9s-12.9-5.8-12.9-12.9s5.8-12.9,12.9-12.9S310.9,628.4,310.9,635.5z"/><path d="M616.6,170.2c0,7.1-5.8,12.9-12.9,12.9s-12.9-5.8-12.9-12.9s5.8-12.9,12.9-12.9S616.6,163.1,616.6,170.2z"/><path d="M555.5,205.5c0,7.1-5.8,12.9-12.9,12.9c-7.1,0-12.9-5.8-12.9-12.9s5.8-12.9,12.9-12.9C549.7,192.6,555.5,198.4,555.5,205.5   z"/><path d="M494.3,240.8c0,7.1-5.8,12.9-12.9,12.9c-7.1,0-12.9-5.8-12.9-12.9s5.8-12.9,12.9-12.9C488.5,227.9,494.3,233.7,494.3,240.8   z"/><path d="M433.2,276.1c0,7.1-5.8,12.9-12.9,12.9s-12.9-5.8-12.9-12.9c0-7.1,5.8-12.9,12.9-12.9S433.2,269,433.2,276.1z"/><path d="M372.1,311.4c0,7.1-5.8,12.9-12.9,12.9s-12.9-5.8-12.9-12.9c0-7.1,5.8-12.9,12.9-12.9S372.1,304.3,372.1,311.4z"/><path d="M310.9,346.7c0,7.1-5.8,12.9-12.9,12.9s-12.9-5.8-12.9-12.9s5.8-12.9,12.9-12.9S310.9,339.6,310.9,346.7z"/><path d="M738.9,677.3c0,7.1-5.8,12.9-12.9,12.9s-12.9-5.8-12.9-12.9s5.8-12.9,12.9-12.9S738.9,670.2,738.9,677.3z"/><path d="M677.8,712.6c0,7.1-5.8,12.9-12.9,12.9c-7.1,0-12.9-5.8-12.9-12.9c0-7.1,5.8-12.9,12.9-12.9   C672,699.7,677.8,705.5,677.8,712.6z"/><path d="M616.6,747.9c0,7.1-5.8,12.9-12.9,12.9s-12.9-5.8-12.9-12.9c0-7.1,5.8-12.9,12.9-12.9S616.6,740.8,616.6,747.9z"/><path d="M555.5,783.2c0,7.1-5.8,12.9-12.9,12.9c-7.1,0-12.9-5.8-12.9-12.9s5.8-12.9,12.9-12.9C549.7,770.3,555.5,776.1,555.5,783.2   z"/><path d="M494.3,818.5c0,7.1-5.8,12.9-12.9,12.9c-7.1,0-12.9-5.8-12.9-12.9s5.8-12.9,12.9-12.9C488.5,805.6,494.3,811.4,494.3,818.5   z"/><path d="M433.2,853.8c0,7.1-5.8,12.9-12.9,12.9s-12.9-5.8-12.9-12.9s5.8-12.9,12.9-12.9S433.2,846.7,433.2,853.8z"/><polygon points="677.4,176.5 635.7,104.1 708.1,62.4 718.1,79.8 663.1,111.5 684.8,149.1 739.8,117.3 749.8,134.7  "/><polygon points="317.8,961.6 307.8,944.2 362.3,912.7 340.6,875.2 286.1,906.7 276.1,889.3 348,847.8 389.7,920.1  "/><rect x="348.3" y="236.5" transform="matrix(0.5002 0.8659 -0.8659 0.5002 504.0545 -122.6299)" width="20" height="277.5"/><rect x="655.7" y="221.1" transform="matrix(0.5002 0.8659 -0.8659 0.5002 644.3889 -396.6017)" width="20" height="277.5"/><rect x="348.2" y="525.4" transform="matrix(0.4999 0.8661 -0.8661 0.4999 754.3782 21.8723)" width="20" height="277.5"/><rect x="655.7" y="509.9" transform="matrix(0.5002 0.8659 -0.8659 0.5002 894.4647 -252.2576)" width="20" height="277.5"/></g></svg>