<svg height="512pt" viewBox="0 0 512 512" width="512pt" xmlns="http://www.w3.org/2000/svg"><path d="m512 256c0 141.386719-114.613281 256-256 256s-256-114.613281-256-256 114.613281-256 256-256 256 114.613281 256 256zm0 0" fill="#ff583e"/><path d="m512 256c0-22.316406-2.863281-43.964844-8.226562-64.601562l-93.402344-93.398438-306.628906 306.628906 102.53125 102.527344c16.085937 3.167969 32.710937 4.84375 49.726562 4.84375 141.386719 0 256-114.613281 256-256zm0 0" fill="#db0404"/><path d="m115.742188 110h282.628906v282.628906h-282.628906zm0 0" fill="#40deed"/><path d="m255.808594 110h142.5625v282.628906h-142.5625zm0 0" fill="#1eb8d1"/><g fill="#e9edf5"><path d="m286.878906 173.378906 27.667969-27.664062 9.898437 9.898437-27.664062 27.667969zm0 0"/><path d="m328.546875 215.046875 27.664063-27.664063 9.902343 9.898438-27.667969 27.664062zm0 0"/><path d="m286.050781 215.542969 70.65625-70.65625 9.902344 9.898437-70.660156 70.65625zm0 0"/></g><path d="m410.371094 404.628906h-306.628906v-306.628906h306.628906zm-282.628906-24h258.628906v-258.628906h-258.628906zm0 0" fill="#fff"/><path d="m410.371094 98h-154.5625v24h130.5625v258.628906h-130.5625v24h154.5625zm0 0" fill="#e9edf5"/><path d="m244 119h24v273.628906h-24zm0 0" fill="#fff"/><path d="m255.808594 119h12.191406v273.628906h-12.191406zm0 0" fill="#e9edf5"/><path d="m125 245h267v24h-267zm0 0" fill="#fff"/><path d="m255.808594 245h136.191406v24h-136.191406zm0 0" fill="#e9edf5"/><path d="m129.214844 312c-7.4375 0-13.472656-6.03125-13.472656-13.472656v-79.527344h26.945312v79.527344c0 7.441406-6.03125 13.472656-13.472656 13.472656zm0 0" fill="#1eb8d1"/></svg>