<?xml version="1.0" encoding="UTF-8" standalone="no"?>
<!-- Created with Inkscape (http://www.inkscape.org/) -->

<svg
   xmlns:dc="http://purl.org/dc/elements/1.1/"
   xmlns:cc="http://creativecommons.org/ns#"
   xmlns:rdf="http://www.w3.org/1999/02/22-rdf-syntax-ns#"
   xmlns:svg="http://www.w3.org/2000/svg"
   xmlns="http://www.w3.org/2000/svg"
   xmlns:sodipodi="http://sodipodi.sourceforge.net/DTD/sodipodi-0.dtd"
   xmlns:inkscape="http://www.inkscape.org/namespaces/inkscape"
   id="svg2"
   version="1.1"
   inkscape:version="0.91 r13725"
   xml:space="preserve"
   width="810"
   height="288.02982"
   viewBox="0 0 809.99999 288.02981"
   sodipodi:docname="publicdomainq-air_condition_unit.svg"
   inkscape:export-filename="/media/sdb1/_GRAFIKA/Publicdomainq/publicdomainq-air_condition_unit.png"
   inkscape:export-xdpi="89.410088"
   inkscape:export-ydpi="89.410088"><title
     id="title8132">Air condition unit</title><metadata
     id="metadata8"><rdf:RDF><cc:Work
         rdf:about=""><dc:format>image/svg+xml</dc:format><dc:type
           rdf:resource="http://purl.org/dc/dcmitype/StillImage" /><dc:title>Air condition unit</dc:title><cc:license
           rdf:resource="http://creativecommons.org/publicdomain/zero/1.0/" /><dc:subject><rdf:Bag><rdf:li>air condition</rdf:li><rdf:li>air</rdf:li><rdf:li>cold</rdf:li><rdf:li>hot</rdf:li><rdf:li>air</rdf:li><rdf:li>electric</rdf:li><rdf:li>cooling</rdf:li><rdf:li>ventilation</rdf:li><rdf:li>publicdomainq.net</rdf:li></rdf:Bag></dc:subject><dc:description>This image was adapted from a picture posted to publicdomainq.net. All of the images on these sites are in the public domain i.e. CC0. This site is only in Japanese but can be easily navigated with Google Translate.</dc:description></cc:Work><cc:License
         rdf:about="http://creativecommons.org/publicdomain/zero/1.0/"><cc:permits
           rdf:resource="http://creativecommons.org/ns#Reproduction" /><cc:permits
           rdf:resource="http://creativecommons.org/ns#Distribution" /><cc:permits
           rdf:resource="http://creativecommons.org/ns#DerivativeWorks" /></cc:License></rdf:RDF></metadata><defs
     id="defs6"><clipPath
       clipPathUnits="userSpaceOnUse"
       id="clipPath40"><path
         d="m 448.219,192.863 131.347,0.75 37.102,0.215 23.395,0.133 114.503,0.656 c -0.062,-0.004 -0.128,-0.004 -0.191,-0.004 l -306.156,-1.75 m -324.895,16.528 c -0.004,0.082 -0.004,0.164 -0.004,0.246 l -1.269,224.289 0.34,-59.723 0.062,-11 0.477,-84.238 0.062,-11.016 0.332,-58.558 m 648.332,223.214 -1.543,270.961 c 0.004,-0.082 0.004,-0.164 0.004,-0.246 l 1.539,-270.715 m -632.851,285.77 c 0.09,0.004 0.179,0.004 0.265,0.004 l 306.157,1.734 -306.422,-1.738"
         id="path42"
         inkscape:connector-curvature="0" /></clipPath><linearGradient
       x1="0"
       y1="0"
       x2="1"
       y2="0"
       gradientUnits="userSpaceOnUse"
       gradientTransform="matrix(575.267,579.888,579.888,-575.267,159.077,166.533)"
       spreadMethod="pad"
       id="linearGradient44"><stop
         style="stop-opacity:1;stop-color:#fcd79a"
         offset="0"
         id="stop46" /><stop
         style="stop-opacity:1;stop-color:#fff98b"
         offset="0.503196"
         id="stop48" /><stop
         style="stop-opacity:1;stop-color:#fab96a"
         offset="1"
         id="stop50" /></linearGradient><clipPath
       clipPathUnits="userSpaceOnUse"
       id="clipPath86"><path
         d="m 773.008,194.723 -649.578,-3.715 -2.992,527.262 649.574,3.683 2.996,-527.23"
         id="path88"
         inkscape:connector-curvature="0" /></clipPath><clipPath
       clipPathUnits="userSpaceOnUse"
       id="clipPath106"><path
         d="m 773.008,194.723 -649.578,-3.715 -2.992,527.262 649.574,3.683 2.996,-527.23"
         id="path108"
         inkscape:connector-curvature="0" /></clipPath><clipPath
       clipPathUnits="userSpaceOnUse"
       id="clipPath112"><path
         d="m 123.43,191.008 -0.106,18.383 c 0.192,-10.098 8.512,-18.278 18.629,-18.278 0.035,0 0.07,0 0.106,0 l 97.703,0.559 0,0 -116.332,-0.664"
         id="path114"
         inkscape:connector-curvature="0" /></clipPath><clipPath
       clipPathUnits="userSpaceOnUse"
       id="clipPath124"><path
         d="m 773.008,194.723 -649.578,-3.715 -2.992,527.262 649.574,3.683 2.996,-527.23"
         id="path126"
         inkscape:connector-curvature="0" /></clipPath><clipPath
       clipPathUnits="userSpaceOnUse"
       id="clipPath130"><path
         d="m 141.953,191.113 c -10.117,0 -18.437,8.18 -18.629,18.278 l -0.332,58.558 c 2.141,-2.629 4.438,-5.219 6.875,-7.765 23.656,-24.645 60.946,-45.766 107.571,-61.602 0.781,-2.312 1.554,-4.617 2.324,-6.91 l -97.703,-0.559 c -0.036,0 -0.071,0 -0.106,0"
         id="path132"
         inkscape:connector-curvature="0" /></clipPath><clipPath
       clipPathUnits="userSpaceOnUse"
       id="clipPath142"><path
         d="m 773.008,194.723 -649.578,-3.715 -2.992,527.262 649.574,3.683 2.996,-527.23"
         id="path144"
         inkscape:connector-curvature="0" /></clipPath><clipPath
       clipPathUnits="userSpaceOnUse"
       id="clipPath148"><path
         d="m 754.566,194.617 c 10.164,0.16 18.395,8.551 18.332,18.738 l 0,0.165 c 0,0 0,0 0.004,0 l 0.106,-18.797 -18.442,-0.106"
         id="path150"
         inkscape:connector-curvature="0" /></clipPath><clipPath
       clipPathUnits="userSpaceOnUse"
       id="clipPath160"><path
         d="m 773.008,194.723 -649.578,-3.715 -2.992,527.262 649.574,3.683 2.996,-527.23"
         id="path162"
         inkscape:connector-curvature="0" /></clipPath><clipPath
       clipPathUnits="userSpaceOnUse"
       id="clipPath166"><path
         d="m 640.063,193.961 c 7.175,2.164 14.167,4.441 20.953,6.836 3.5,0.5 6.964,0.984 10.386,1.457 29.657,4.078 55.965,6.969 74.852,8.84 12.586,1.246 21.851,2.039 26.644,2.426 l 0,-0.165 c 0.063,-10.187 -8.168,-18.578 -18.332,-18.738 l -114.503,-0.656"
         id="path168"
         inkscape:connector-curvature="0" /></clipPath><clipPath
       clipPathUnits="userSpaceOnUse"
       id="clipPath178"><path
         d="m 773.008,194.723 -649.578,-3.715 -2.992,527.262 649.574,3.683 2.996,-527.23"
         id="path180"
         inkscape:connector-curvature="0" /></clipPath><clipPath
       clipPathUnits="userSpaceOnUse"
       id="clipPath184"><path
         d="m 772.809,229.949 c 0,0 0,0 -0.004,0.004 l -0.223,39.512 0,0 0.227,-39.516"
         id="path186"
         inkscape:connector-curvature="0" /></clipPath><clipPath
       clipPathUnits="userSpaceOnUse"
       id="clipPath196"><path
         d="m 773.008,194.723 -649.578,-3.715 -2.992,527.262 649.574,3.683 2.996,-527.23"
         id="path198"
         inkscape:connector-curvature="0" /></clipPath><clipPath
       clipPathUnits="userSpaceOnUse"
       id="clipPath202"><path
         d="m 772.805,229.953 c -3.594,6.301 -8.504,14.895 -14.211,24.852 2.66,2.433 5.187,4.906 7.574,7.414 2.266,2.379 4.402,4.797 6.414,7.246 l 0.223,-39.512"
         id="path204"
         inkscape:connector-curvature="0" /></clipPath><clipPath
       clipPathUnits="userSpaceOnUse"
       id="clipPath214"><path
         d="m 773.008,194.723 -649.578,-3.715 -2.992,527.262 649.574,3.683 2.996,-527.23"
         id="path216"
         inkscape:connector-curvature="0" /></clipPath><clipPath
       clipPathUnits="userSpaceOnUse"
       id="clipPath220"><path
         d="m 771.965,378.293 0,0 -0.309,54.312 0.309,-54.312 m -649.914,55.633 -1.613,284.344 18.367,0.105 c -10.125,-0.203 -18.317,-8.578 -18.258,-18.734 l 1.504,-265.715 m 648.062,269.64 c -0.187,10.102 -8.515,18.282 -18.629,18.282 -0.035,0 -0.07,0 -0.105,0 l -306.152,-1.735 324.785,1.84 0.101,-18.387"
         id="path222"
         inkscape:connector-curvature="0" /></clipPath><clipPath
       clipPathUnits="userSpaceOnUse"
       id="clipPath232"><path
         d="m 773.008,194.723 -649.578,-3.715 -2.992,527.262 649.574,3.683 2.996,-527.23"
         id="path234"
         inkscape:connector-curvature="0" /></clipPath><clipPath
       clipPathUnits="userSpaceOnUse"
       id="clipPath238"><path
         d="m 122.391,374.203 -0.34,59.723 -1.504,265.715 c -0.059,10.156 8.133,18.531 18.258,18.734 l 306.422,1.738 306.152,1.735 c 0.035,0 0.07,0 0.105,0 10.114,0 18.442,-8.18 18.629,-18.282 l 1.543,-270.961 0.309,-54.312 c -1.836,2.191 -3.777,4.352 -5.82,6.484 -25.836,26.907 -67.911,49.618 -120.665,65.836 -7.394,14.848 -14.863,30.176 -21.371,43.68 -5.711,11.844 -10.683,22.285 -14.23,29.762 -3.547,7.476 -5.656,11.976 -5.664,11.988 l -0.699,1.492 -1.614,0.332 -0.664,-3.219 0.664,3.219 c -1.082,0.215 -2.203,0.262 -3.644,0.27 -8.992,-0.02 -30.488,-2.711 -58.586,-6.809 -84.149,-12.293 -225.426,-37.23 -241.567,-40.652 l 0,0 c -5.16,-1.106 -18.089,-2.676 -34.234,-4.324 -24.262,-2.489 -56.062,-5.235 -81.781,-7.36 -25.727,-2.125 -45.328,-3.621 -45.371,-3.625 l -3.981,-0.304 1.063,-3.848 c 0.008,-0.031 8.652,-31.301 20.316,-67.09 0.039,-0.117 0.078,-0.238 0.117,-0.359 -9.242,-6.668 -17.41,-13.692 -24.386,-21.024 -2.66,-2.797 -5.149,-5.644 -7.457,-8.539"
         id="path240"
         inkscape:connector-curvature="0" /></clipPath><clipPath
       clipPathUnits="userSpaceOnUse"
       id="clipPath250"><path
         d="m 773.008,194.723 -649.578,-3.715 -2.992,527.262 649.574,3.683 2.996,-527.23"
         id="path252"
         inkscape:connector-curvature="0" /></clipPath><clipPath
       clipPathUnits="userSpaceOnUse"
       id="clipPath256"><path
         d="m 234.758,206.477 c -9.922,3.496 -19.379,7.234 -28.328,11.191 -30.465,13.461 -55.008,29.477 -71.817,47.059 -4.441,4.652 -8.347,9.402 -11.683,14.238 l -0.477,84.238 c 3.438,5.098 7.5,10.106 12.16,15.008 6.227,6.574 13.512,12.926 21.778,19.016 5.246,-15.817 11.004,-32.172 16.812,-46.868 1.883,-4.754 3.766,-9.328 5.641,-13.66 -1.328,-4.929 -2.02,-9.961 -2.02,-15.082 l 0,-0.219 c 0.067,-17.324 8.047,-33.64 21.918,-48.121 5.063,-5.265 10.906,-10.324 17.473,-15.144 6.129,-16.02 12.48,-33.906 18.543,-51.656 m 520.484,54.16 c -6.031,10.508 -12.773,22.207 -19.695,34.152 -5.434,9.367 -10.973,18.887 -16.371,28.094 0,0.152 0,0.305 0,0.461 l 0,0.215 -0.399,0 c 0,0 0,0 0,0.004 l 0.399,0 c -0.063,17.324 -8.043,33.64 -21.914,48.121 -4.942,5.14 -10.629,10.082 -17,14.8 -0.129,0.176 -0.25,0.344 -0.371,0.504 -3.649,4.871 -10.418,16.891 -18.231,31.832 -3.816,7.285 -7.902,15.293 -12.078,23.598 14.219,-4.578 27.582,-9.637 39.973,-15.113 30.476,-13.465 55.027,-29.489 71.84,-47.071 3.984,-4.168 7.535,-8.418 10.628,-12.734 l 0.497,-87.258 c -3.207,-4.574 -6.922,-9.078 -11.118,-13.496 -1.949,-2.058 -4.004,-4.094 -6.16,-6.109"
         id="path258"
         inkscape:connector-curvature="0" /></clipPath><clipPath
       clipPathUnits="userSpaceOnUse"
       id="clipPath268"><path
         d="m 773.008,194.723 -649.578,-3.715 -2.992,527.262 649.574,3.683 2.996,-527.23"
         id="path270"
         inkscape:connector-curvature="0" /></clipPath><clipPath
       clipPathUnits="userSpaceOnUse"
       id="clipPath274"><path
         d="m 616.668,193.828 c 15.137,2.602 30.059,4.918 44.348,6.969 -6.786,-2.395 -13.778,-4.672 -20.953,-6.836 l -23.395,-0.133 m -379.23,4.754 c -46.625,15.836 -83.915,36.957 -107.571,61.602 -2.437,2.546 -4.734,5.136 -6.875,7.765 l -0.062,11.016 c 3.336,-4.836 7.242,-9.586 11.683,-14.238 16.809,-17.582 41.352,-33.598 71.817,-47.059 8.949,-3.957 18.406,-7.695 28.328,-11.191 0.902,-2.637 1.797,-5.27 2.68,-7.895 m 521.156,56.223 c -1.09,1.894 -2.207,3.843 -3.352,5.832 2.156,2.015 4.211,4.051 6.16,6.109 4.196,4.418 7.911,8.922 11.118,13.496 l 0.062,-10.777 0,0 c -2.012,-2.449 -4.148,-4.867 -6.414,-7.246 -2.387,-2.508 -4.914,-4.981 -7.574,-7.414 m -636.141,108.398 -0.062,11 c 2.308,2.895 4.797,5.742 7.457,8.539 6.976,7.332 15.144,14.356 24.386,21.024 0.707,-2.164 1.426,-4.348 2.157,-6.539 -8.266,-6.09 -15.551,-12.442 -21.778,-19.016 -4.66,-4.902 -8.722,-9.91 -12.16,-15.008 m 649.57,4.297 c -3.093,4.316 -6.644,8.566 -10.628,12.734 -16.813,17.582 -41.364,33.606 -71.84,47.071 -12.391,5.476 -25.754,10.535 -39.973,15.113 -1.359,2.703 -2.73,5.441 -4.102,8.195 52.754,-16.218 94.829,-38.929 120.665,-65.836 2.043,-2.132 3.984,-4.293 5.82,-6.484 l 0,0 0.058,-10.793"
         id="path276"
         inkscape:connector-curvature="0" /></clipPath><clipPath
       clipPathUnits="userSpaceOnUse"
       id="clipPath286"><path
         d="m 773.008,194.723 -649.578,-3.715 -2.992,527.262 649.574,3.683 2.996,-527.23"
         id="path288"
         inkscape:connector-curvature="0" /></clipPath><clipPath
       clipPathUnits="userSpaceOnUse"
       id="clipPath292"><path
         d="m 211.465,270.27 c -2.863,2.472 -5.524,4.992 -7.973,7.55 -13.062,13.676 -20.027,28.348 -20.094,43.606 l 0,0.191 c 0,1.535 0.071,3.067 0.211,4.59 3.137,-6.543 6.231,-12.215 9.231,-16.687 5.004,-7.411 11.59,-21.696 18.625,-39.25 m 499.148,67.156 c -2.91,4.918 -5.73,9.66 -8.418,14.144 -3.215,5.364 -6.23,10.348 -8.984,14.828 8.668,-9.25 14.547,-18.949 17.402,-28.972"
         id="path294"
         inkscape:connector-curvature="0" /></clipPath><clipPath
       clipPathUnits="userSpaceOnUse"
       id="clipPath304"><path
         d="m 773.008,194.723 -649.578,-3.715 -2.992,527.262 649.574,3.683 2.996,-527.23"
         id="path306"
         inkscape:connector-curvature="0" /></clipPath><clipPath
       clipPathUnits="userSpaceOnUse"
       id="clipPath310"><path
         d="m 216.215,258.133 c -6.567,4.82 -12.41,9.879 -17.473,15.144 -13.871,14.481 -21.851,30.797 -21.918,48.121 l 0,0.219 c 0,5.121 0.692,10.153 2.02,15.082 1.594,-3.687 3.187,-7.199 4.765,-10.492 -0.14,-1.523 -0.211,-3.055 -0.211,-4.59 l 0,-0.191 c 0.067,-15.258 7.032,-29.93 20.094,-43.606 2.449,-2.558 5.11,-5.078 7.973,-7.55 0.976,-2.438 1.965,-4.934 2.953,-7.489 0.598,-1.531 1.195,-3.082 1.797,-4.648 m 502.961,64.75 c -0.133,0.226 -0.266,0.453 -0.399,0.676 l 0.399,0 0,-0.215 c 0,-0.156 0,-0.309 0,-0.461 m -0.399,0.68 c -2.773,4.722 -5.507,9.367 -8.164,13.863 -2.855,10.023 -8.734,19.722 -17.402,28.972 -5.606,9.137 -10.109,16.188 -12.949,20.086 6.371,-4.718 12.058,-9.66 17,-14.8 13.871,-14.481 21.851,-30.797 21.914,-48.121 l -0.399,0"
         id="path312"
         inkscape:connector-curvature="0" /></clipPath><clipPath
       clipPathUnits="userSpaceOnUse"
       id="clipPath322"><path
         d="m 773.008,194.723 -649.578,-3.715 -2.992,527.262 649.574,3.683 2.996,-527.23"
         id="path324"
         inkscape:connector-curvature="0" /></clipPath><clipPath
       clipPathUnits="userSpaceOnUse"
       id="clipPath328"><path
         d="m 246.676,191.711 c -0.438,1.309 -0.875,2.625 -1.317,3.941 -7.921,23.629 -16.597,48.383 -24.816,69.512 -8.242,21.16 -15.922,38.578 -22.25,48.024 -5.75,8.535 -12.406,22.953 -18.977,39.589 -9.878,24.981 -19.687,55.055 -27.011,78.86 -3.664,11.902 -6.707,22.242 -8.832,29.597 -0.942,3.254 -1.703,5.922 -2.258,7.887 10.207,0.793 38.562,3.02 68.683,5.621 18.86,1.629 38.411,3.406 54.645,5.071 16.266,1.671 29.07,3.195 34.93,4.433 l 0,0 c 10.437,2.219 76.922,14.082 144.836,25.356 33.972,5.64 68.343,11.14 96.312,15.222 27.824,4.074 49.535,6.739 57.563,6.739 0.023,0 0.05,0 0.074,0 0.043,0 0.086,0 0.125,0 0.242,0 0.469,-0.004 0.68,-0.008 3.328,-7.071 16.597,-35.172 31.343,-65.258 8.528,-17.402 17.547,-35.469 25.434,-50.527 7.91,-15.09 14.57,-27.04 18.781,-32.711 3.738,-5 11.942,-18.184 21.938,-34.868 15.019,-25.066 34.257,-58.257 49.734,-85.171 7.738,-13.457 14.539,-25.344 19.402,-33.872 2.16,-3.781 3.938,-6.898 5.246,-9.199 -21.695,-1.797 -108.152,-9.59 -191.375,-26.336 l -131.347,-0.75 -201.543,-1.152 m 26.301,167.644 c 0.468,0 0.929,-0.328 2.418,-1.382 0.546,-0.387 1.168,-0.559 1.828,-0.559 4.511,0 11.023,7.957 11.023,7.957 0,0 0.586,4.91 -3.094,6.742 -3.687,1.828 -5.543,4.254 -10.445,6.114 -4.91,1.796 -34.375,9.054 -34.375,9.054 0,0 -4.887,-5.543 -3.027,-9.824 1.84,-4.289 0.023,-6.742 6.152,-9.172 6.145,-2.457 6.145,-2.457 9.231,-4.887 3.082,-2.425 -1.829,-4.281 10.437,-4.851 1.098,-0.055 2.063,-0.074 2.914,-0.074 2.688,0 4.231,0.218 5.195,0.441 0.965,0.219 1.356,0.441 1.743,0.441"
         id="path330"
         inkscape:connector-curvature="0" /></clipPath><clipPath
       clipPathUnits="userSpaceOnUse"
       id="clipPath340"><path
         d="m 773.008,194.723 -649.578,-3.715 -2.992,527.262 649.574,3.683 2.996,-527.23"
         id="path342"
         inkscape:connector-curvature="0" /></clipPath><clipPath
       clipPathUnits="userSpaceOnUse"
       id="clipPath346"><path
         d="m 239.762,191.672 0,0 c -0.77,2.293 -1.543,4.598 -2.324,6.91 -0.883,2.625 -1.778,5.258 -2.68,7.895 -6.063,17.75 -12.414,35.636 -18.543,51.656 -0.602,1.566 -1.199,3.117 -1.797,4.648 -0.988,2.555 -1.977,5.051 -2.953,7.489 -7.035,17.554 -13.621,31.839 -18.625,39.25 -3,4.472 -6.094,10.144 -9.231,16.687 -1.578,3.293 -3.171,6.805 -4.765,10.492 -1.875,4.332 -3.758,8.906 -5.641,13.66 -5.808,14.696 -11.566,31.051 -16.812,46.868 -0.731,2.191 -1.45,4.375 -2.157,6.539 -0.039,0.121 -0.078,0.242 -0.117,0.359 -11.664,35.789 -20.308,67.059 -20.316,67.09 l -1.063,3.848 3.981,0.304 c 0.043,0.004 19.644,1.5 45.371,3.625 25.719,2.125 57.519,4.871 81.781,7.36 16.145,1.648 29.074,3.218 34.234,4.324 l 0,0 c 16.141,3.422 157.418,28.359 241.567,40.652 28.098,4.098 49.594,6.789 58.586,6.809 1.441,-0.008 2.562,-0.055 3.644,-0.27 l -0.664,-3.219 0.664,3.219 1.614,-0.332 0.699,-1.492 c 0.008,-0.012 2.117,-4.512 5.664,-11.988 3.547,-7.477 8.519,-17.918 14.23,-29.762 6.508,-13.504 13.977,-28.832 21.371,-43.68 1.372,-2.754 2.743,-5.492 4.102,-8.195 4.176,-8.305 8.262,-16.313 12.078,-23.598 7.813,-14.941 14.582,-26.961 18.231,-31.832 0.121,-0.16 0.242,-0.328 0.371,-0.504 2.84,-3.898 7.343,-10.949 12.949,-20.086 2.754,-4.48 5.769,-9.464 8.984,-14.828 2.688,-4.484 5.508,-9.226 8.418,-14.144 2.657,-4.496 5.391,-9.141 8.164,-13.863 0,-0.004 0,-0.004 0,-0.004 0.133,-0.223 0.266,-0.45 0.399,-0.676 5.398,-9.207 10.937,-18.727 16.371,-28.094 6.922,-11.945 13.664,-23.644 19.695,-34.152 1.145,-1.989 2.262,-3.938 3.352,-5.832 5.707,-9.957 10.617,-18.551 14.211,-24.852 0.004,-0.004 0.004,-0.004 0.004,-0.004 l 0.093,-16.429 c -0.004,0 -0.004,0 -0.004,0 -4.793,-0.387 -14.058,-1.18 -26.644,-2.426 -18.887,-1.871 -45.195,-4.762 -74.852,-8.84 -3.422,-0.473 -6.886,-0.957 -10.386,-1.457 -14.289,-2.051 -29.211,-4.367 -44.348,-6.969 l -37.102,-0.215 c 83.223,16.746 169.68,24.539 191.375,26.336 -1.308,2.301 -3.086,5.418 -5.246,9.199 -4.863,8.528 -11.664,20.415 -19.402,33.872 -15.477,26.914 -34.715,60.105 -49.734,85.171 -9.996,16.684 -18.2,29.868 -21.938,34.868 -4.211,5.671 -10.871,17.621 -18.781,32.711 -7.887,15.058 -16.906,33.125 -25.434,50.527 -14.746,30.086 -28.015,58.187 -31.343,65.258 -0.211,0.004 -0.438,0.008 -0.68,0.008 -0.039,0 -0.082,0 -0.125,0 -0.024,0 -0.051,0 -0.074,0 -8.028,0 -29.739,-2.665 -57.563,-6.739 -27.969,-4.082 -62.34,-9.582 -96.312,-15.222 C 376.395,498.328 309.91,486.465 299.473,484.246 l 0,0 c -5.86,-1.238 -18.664,-2.762 -34.93,-4.433 -16.234,-1.665 -35.785,-3.442 -54.645,-5.071 -30.121,-2.601 -58.476,-4.828 -68.683,-5.621 0.555,-1.965 1.316,-4.633 2.258,-7.887 2.125,-7.355 5.168,-17.695 8.832,-29.597 7.324,-23.805 17.133,-53.879 27.011,-78.86 6.571,-16.636 13.227,-31.054 18.977,-39.589 6.328,-9.446 14.008,-26.864 22.25,-48.024 8.219,-21.129 16.895,-45.883 24.816,-69.512 0.442,-1.316 0.879,-2.632 1.317,-3.941 l -6.914,-0.039"
         id="path348"
         inkscape:connector-curvature="0" /></clipPath><clipPath
       clipPathUnits="userSpaceOnUse"
       id="clipPath358"><path
         d="m 773.008,194.723 -649.578,-3.715 -2.992,527.262 649.574,3.683 2.996,-527.23"
         id="path360"
         inkscape:connector-curvature="0" /></clipPath><clipPath
       clipPathUnits="userSpaceOnUse"
       id="clipPath364"><path
         d="m 277.223,357.414 c -0.66,0 -1.282,0.172 -1.828,0.559 -1.489,1.054 -1.95,1.382 -2.418,1.382 -0.387,0 -0.778,-0.222 -1.743,-0.441 -0.964,-0.223 -2.507,-0.441 -5.195,-0.441 -0.851,0 -1.816,0.019 -2.914,0.074 -12.266,0.57 -7.355,2.426 -10.437,4.851 -3.086,2.43 -3.086,2.43 -9.231,4.887 -6.129,2.43 -4.312,4.883 -6.152,9.172 -1.86,4.281 3.027,9.824 3.027,9.824 0,0 29.465,-7.258 34.375,-9.054 4.902,-1.86 6.758,-4.286 10.445,-6.114 3.68,-1.832 3.094,-6.742 3.094,-6.742 0,0 -6.512,-7.957 -11.023,-7.957"
         id="path366"
         inkscape:connector-curvature="0" /></clipPath><clipPath
       clipPathUnits="userSpaceOnUse"
       id="clipPath376"><path
         d="m 773.008,194.723 -649.578,-3.715 -2.992,527.262 649.574,3.683 2.996,-527.23"
         id="path378"
         inkscape:connector-curvature="0" /></clipPath><clipPath
       clipPathUnits="userSpaceOnUse"
       id="clipPath22"><path
         d="m 14670,6921.59 -247,0 11.3,1076.75 c 0,0 20.1,311.82 -100.5,322.18 -120.7,10.36 -402.4,29.88 -402.4,29.88 0,0 -814,39.93 -1979.1,96.41 l 0,83.57 2717.7,0 0,-1608.79"
         id="path24"
         inkscape:connector-curvature="0" /></clipPath><clipPath
       clipPathUnits="userSpaceOnUse"
       id="clipPath34"><path
         d="m 14423,6921.59 -2016.2,0 0,590.8 -454.5,0 0,934.42 c 1165.1,-56.48 1979.1,-96.41 1979.1,-96.41 0,0 281.7,-19.52 402.4,-29.88 120.6,-10.36 100.5,-322.18 100.5,-322.18 L 14423,6921.59"
         id="path36"
         inkscape:connector-curvature="0" /></clipPath><clipPath
       clipPathUnits="userSpaceOnUse"
       id="clipPath46"><path
         d="m 96.4453,6848.87 -96.4453,0 0,1217.95 1121.22,0 c -357.306,-110.8 -608.173,-189.18 -608.173,-189.18 0,0 -265.152,-62.78 -392.293,-201.26 -28.5977,-110.07 -41.4024,-294.41 -30.1837,-392.29 0,0 2.2774,-163.59 5.875,-435.22"
         id="path48"
         inkscape:connector-curvature="0" /></clipPath><clipPath
       clipPathUnits="userSpaceOnUse"
       id="clipPath58"><path
         d="m 9430.16,6848.87 -9333.7147,0 c -3.5976,271.63 -5.875,435.22 -5.875,435.22 -11.2187,97.88 1.586,282.22 30.1837,392.29 127.141,138.48 392.293,201.26 392.293,201.26 0,0 250.867,78.38 608.173,189.18 l 8695.14,0 0,-699.33 c -18.09,-4.14 -64.9,-15.33 -116.62,-31.24 -32.99,-10.16 -68.08,-22.25 -98.98,-35.79 -15.54,-6.79 -29.99,-13.94 -42.81,-21.5 -12.81,-7.59 -23.99,-15.56 -32.9,-24.41 -17.27,-17.33 -30.91,-41.32 -42.72,-67.72 -17.54,-39.59 -30.45,-84.79 -39.08,-120.33 -8.55,-35.51 -12.91,-61.29 -12.91,-61.54 l -0.18,-1.23 0,-1.26 0,-153.6"
         id="path60"
         inkscape:connector-curvature="0" /></clipPath><clipPath
       clipPathUnits="userSpaceOnUse"
       id="clipPath76"><path
         d="m 8610.32,6806.37 694.04,-30.17 0,-256.49 c 0,0 -362.09,-1342.55 -347.01,-3055.21 15.09,-1712.64 286.66,-2421.78 286.66,-2421.78 l 0,-252.759 -724.21,60.363 c 0,0 -437.57,1220.806 -362.12,3135.786 75.43,1914.98 452.64,2820.26 452.64,2820.26 z"
         id="path78"
         inkscape:connector-curvature="0" /></clipPath><linearGradient
       x1="0"
       y1="0"
       x2="1"
       y2="0"
       gradientUnits="userSpaceOnUse"
       gradientTransform="matrix(624.60371,5942.7104,5942.7104,-624.60371,8523.0594,849.99091)"
       spreadMethod="pad"
       id="linearGradient80"><stop
         style="stop-opacity:1;stop-color:#1d1c1c"
         offset="0"
         id="stop82" /><stop
         style="stop-opacity:1;stop-color:#4c4e53"
         offset="0.460177"
         id="stop84" /><stop
         style="stop-opacity:1;stop-color:#a8a8ab"
         offset="0.646018"
         id="stop86" /><stop
         style="stop-opacity:1;stop-color:#5e6268"
         offset="0.787611"
         id="stop88" /><stop
         style="stop-opacity:1;stop-color:#1d1c1c"
         offset="0.99115"
         id="stop90" /><stop
         style="stop-opacity:1;stop-color:#1d1c1c"
         offset="1"
         id="stop92" /></linearGradient><clipPath
       clipPathUnits="userSpaceOnUse"
       id="clipPath100"><path
         d="m 11761.4,54.3906 -129.8,0 -248,27.5586 c 104.7,-2.082 207,-22.1328 273.5,-22.1328 56.8,0 87.5,14.6055 71.4,67.4136 l 29.7,6576.22 327.4,0 -1.3,-6532.708 c -5.1,0.434 -11.2,0.746 -17.9,0.754 -21.5,-0.035 -50,-3.164 -77.4,-17.016 -11.5,-5.816 -31.9,-15.214 -55.7,-25.832 -35.8,-15.96 -79.5,-34.8394 -114.2,-49.7066 -17.4,-7.4375 -32.5,-13.8711 -43.3,-18.4414 -6.5,-2.8008 -11.5,-4.8906 -14.4,-6.1094 m -2225.26,232.9374 -72.53,8.07 -3.28,6705.812 c 0,0.21 0,0.44 0.09,0.71 1.73,9.69 10,54.95 24.82,104.29 7.36,24.67 16.36,50.33 26.72,72.93 10.36,22.58 22.36,42.04 34.45,54.07 6.18,6.24 15.45,13.05 26.9,19.76 19.9,11.81 46.17,23.37 74.26,33.81 41.99,15.71 87.89,29.01 123.25,38.34 17.63,4.66 32.63,8.33 43.17,10.84 5.28,1.26 9.46,2.22 12.37,2.86 1,0.22 1.81,0.41 2.45,0.56 l 1587.29,-58.78 0,-192.9 -1779.8,59 c -199.96,0 -150.88,-198.98 -150.88,-407.24 l 30.17,-6219.929 c 0,-137.449 -5.36,-202.125 20.55,-232.203"
         id="path102"
         inkscape:connector-curvature="0" /></clipPath><linearGradient
       x1="0"
       y1="0"
       x2="1"
       y2="0"
       gradientUnits="userSpaceOnUse"
       gradientTransform="matrix(2655.5172,0,0,-2655.5172,9445.2827,3696.9369)"
       spreadMethod="pad"
       id="linearGradient104"><stop
         style="stop-opacity:1;stop-color:#fbfbfa"
         offset="0"
         id="stop106" /><stop
         style="stop-opacity:1;stop-color:#fbfbfa"
         offset="0.836283"
         id="stop108" /><stop
         style="stop-opacity:1;stop-color:#eeeeed"
         offset="1"
         id="stop110" /></linearGradient><clipPath
       clipPathUnits="userSpaceOnUse"
       id="clipPath120"><path
         d="m 11657.1,59.8164 c -66.5,0 -168.8,20.0508 -273.5,22.1328 -5.7,0.1172 -11.4,0.1797 -17.2,0.1797 L 9606.13,263.18 c -35,2.343 -56.63,8.66 -69.99,24.148 -25.91,30.078 -20.55,94.754 -20.55,232.203 l -30.17,6219.929 c 0,208.26 -49.08,407.24 150.88,407.24 l 1779.8,-59 0,-384.25 342.1,0 -29.7,-6576.22 c 16.1,-52.8081 -14.6,-67.4136 -71.4,-67.4136"
         id="path122"
         inkscape:connector-curvature="0" /></clipPath><linearGradient
       x1="0"
       y1="0"
       x2="1"
       y2="0"
       gradientUnits="userSpaceOnUse"
       gradientTransform="matrix(2278.6312,0,0,-2278.6312,9480.1854,3603.2721)"
       spreadMethod="pad"
       id="linearGradient124"><stop
         style="stop-opacity:1;stop-color:#ffffff"
         offset="0"
         id="stop126" /><stop
         style="stop-opacity:1;stop-color:#e0dfde"
         offset="1"
         id="stop128" /></linearGradient><clipPath
       clipPathUnits="userSpaceOnUse"
       id="clipPath136"><path
         d="m 12406.8,6703.45 -291.1,0 0.1,128.54 -0.1,0.5 c 0,0.11 -2.4,37.49 -7.4,89.1 l 298.5,0 0,-218.14 m -454.5,565.12 c -3.7,1.02 -7.5,2 -11.3,2.97 -47.2,11.73 -99.9,18.57 -141,22.57 -41.2,3.99 -70.6,5.08 -70.9,5.1 l -313,11.59 0,201.59 536.2,0 0,-243.82"
         id="path138"
         inkscape:connector-curvature="0" /></clipPath><clipPath
       clipPathUnits="userSpaceOnUse"
       id="clipPath148-3"><path
         d="m 12406.8,6921.59 -298.5,0 c -2.1,21.82 -4.7,46.2 -7.7,71.36 -5,42.37 -11.4,86.98 -19,125.77 -3.8,19.41 -8,37.36 -12.7,52.98 -4.5,15.64 -9.4,28.88 -15.4,39.44 l 0,0 c -6.9,11.92 -17.6,21.13 -30.1,29 -19.5,11.99 -44.1,21.06 -71.1,28.43 l 0,243.82 454.5,0 0,-590.8"
         id="path150-6"
         inkscape:connector-curvature="0" /></clipPath><clipPath
       clipPathUnits="userSpaceOnUse"
       id="clipPath160-7"><path
         d="m 12085.6,6703.45 -327.4,0 0.5,126.55 c 0,208.24 -101.8,256.35 -301.7,256.35 l -40.9,1.35 0,192.9 311.9,-11.55 c 0,0 1,-0.04 2.9,-0.13 14.6,-0.66 82,-4.24 149.6,-15.74 33.8,-5.72 67.7,-13.47 94.6,-23.47 13.5,-4.98 25.2,-10.54 34.1,-16.36 9,-5.82 15,-11.86 18,-17.19 l 0,0.01 c 4.1,-7.04 8.7,-18.64 12.8,-32.97 7.4,-25.15 14.1,-58.84 19.8,-94.88 8.6,-54.1 15,-113.66 19.4,-159.61 2.2,-22.97 3.7,-42.55 4.8,-56.39 0.6,-6.9 1,-12.37 1.3,-16.12 0.2,-2.65 0.3,-4.41 0.4,-5.21 l -0.1,-127.54"
         id="path162-5"
         inkscape:connector-curvature="0" /></clipPath><clipPath
       clipPathUnits="userSpaceOnUse"
       id="clipPath172"><path
         d="m 12115.7,6703.45 -30.1,0 0.1,127.54 c -0.1,0.8 -0.2,2.56 -0.4,5.21 -0.3,3.75 -0.7,9.22 -1.3,16.12 -1.1,13.84 -2.6,33.42 -4.8,56.39 -4.4,45.95 -10.8,105.51 -19.4,159.61 -5.7,36.04 -12.4,69.73 -19.8,94.88 -4.1,14.33 -8.7,25.93 -12.8,32.97 l 0,-0.01 c -3,5.33 -9,11.37 -18,17.19 -8.9,5.82 -20.6,11.38 -34.1,16.36 -26.9,10 -60.8,17.75 -94.6,23.47 -67.6,11.5 -135,15.08 -149.6,15.74 -1.9,0.09 -2.9,0.13 -2.9,0.13 l -311.9,11.55 0,30.2 313,-11.59 c 0.3,-0.02 29.7,-1.11 70.9,-5.1 41.1,-4 93.8,-10.84 141,-22.57 3.8,-0.97 7.6,-1.95 11.3,-2.97 27,-7.37 51.6,-16.44 71.1,-28.43 12.5,-7.87 23.2,-17.08 30.1,-29 l 0,0 c 6,-10.56 10.9,-23.8 15.4,-39.44 4.7,-15.62 8.9,-33.57 12.7,-52.98 7.6,-38.79 14,-83.4 19,-125.77 3,-25.16 5.6,-49.54 7.7,-71.36 5,-51.61 7.4,-88.99 7.4,-89.1 l 0.1,-0.5 -0.1,-128.54"
         id="path174"
         inkscape:connector-curvature="0" /></clipPath><clipPath
       clipPathUnits="userSpaceOnUse"
       id="clipPath184-3"><path
         d="m 11758.2,6703.45 -342.1,0 0,384.25 40.9,-1.35 c 199.9,0 301.7,-48.11 301.7,-256.35 l -0.5,-126.55"
         id="path186-5"
         inkscape:connector-curvature="0" /></clipPath><clipPath
       clipPathUnits="userSpaceOnUse"
       id="clipPath202-6"><path
         d="m 11061.9,4081.3 c 0,-350.03 -283.6,-633.79 -633.7,-633.79 -350.1,0 -633.75,283.76 -633.75,633.79 0,350.03 283.65,633.75 633.75,633.75 350.1,0 633.7,-283.72 633.7,-633.75 z"
         id="path204-2"
         inkscape:connector-curvature="0" /></clipPath><linearGradient
       x1="0"
       y1="0"
       x2="1"
       y2="0"
       gradientUnits="userSpaceOnUse"
       gradientTransform="matrix(896.29522,896.29522,896.29522,-896.29522,9980.0945,3633.1485)"
       spreadMethod="pad"
       id="linearGradient206"><stop
         style="stop-opacity:1;stop-color:#eeeeed"
         offset="0"
         id="stop208" /><stop
         style="stop-opacity:1;stop-color:#8e9095"
         offset="1"
         id="stop210" /></linearGradient><clipPath
       clipPathUnits="userSpaceOnUse"
       id="clipPath220-9"><path
         d="m 10960.8,4081.3 c 0,-294.17 -238.4,-532.63 -532.6,-532.63 -294.2,0 -532.59,238.46 -532.59,532.63 0,294.13 238.39,532.58 532.59,532.58 294.2,0 532.6,-238.45 532.6,-532.58 z"
         id="path222-1"
         inkscape:connector-curvature="0" /></clipPath><linearGradient
       x1="0"
       y1="0"
       x2="1"
       y2="0"
       gradientUnits="userSpaceOnUse"
       gradientTransform="matrix(753.23396,753.23396,753.23396,-753.23396,10051.627,3704.6719)"
       spreadMethod="pad"
       id="linearGradient224"><stop
         style="stop-opacity:1;stop-color:#ffffff"
         offset="0"
         id="stop226" /><stop
         style="stop-opacity:1;stop-color:#eeeeed"
         offset="1"
         id="stop228" /></linearGradient><clipPath
       clipPathUnits="userSpaceOnUse"
       id="clipPath16"><path
         d="m 0,858.897 612.288,0 L 612.288,0 0,0 0,858.897 Z"
         id="path18"
         inkscape:connector-curvature="0" /></clipPath><clipPath
       clipPathUnits="userSpaceOnUse"
       id="clipPath52"><path
         d="m 87.8638,380.737 457.0552,0 0,-29.925 -457.0552,0 0,29.925 z"
         id="path54"
         inkscape:connector-curvature="0" /></clipPath><clipPath
       clipPathUnits="userSpaceOnUse"
       id="clipPath16-6"><path
         d="m 0,858.897 612.288,0 L 612.288,0 0,0 0,858.897 Z"
         id="path18-0"
         inkscape:connector-curvature="0" /></clipPath><clipPath
       clipPathUnits="userSpaceOnUse"
       id="clipPath52-6"><path
         d="m 87.8638,380.737 457.0552,0 0,-29.925 -457.0552,0 0,29.925 z"
         id="path54-2"
         inkscape:connector-curvature="0" /></clipPath><clipPath
       clipPathUnits="userSpaceOnUse"
       id="clipPath84"><path
         d="m 97.536,389.927 438.786,0 0,9.818 -438.786,0 0,-9.818 z"
         id="path86"
         inkscape:connector-curvature="0" /></clipPath><linearGradient
       x1="0"
       y1="0"
       x2="1"
       y2="0"
       gradientUnits="userSpaceOnUse"
       gradientTransform="matrix(0,9.8183594,9.8183594,0,316.92773,389.92676)"
       spreadMethod="pad"
       id="linearGradient92"><stop
         style="stop-opacity:1;stop-color:#ffffff"
         offset="0"
         id="stop94" /><stop
         style="stop-opacity:1;stop-color:#231f20"
         offset="1"
         id="stop96" /></linearGradient><clipPath
       clipPathUnits="userSpaceOnUse"
       id="clipPath104"><path
         d="m 0,858.897 612.288,0 L 612.288,0 0,0 0,858.897 Z"
         id="path106"
         inkscape:connector-curvature="0" /></clipPath></defs><sodipodi:namedview
     pagecolor="#ffffff"
     bordercolor="#666666"
     borderopacity="1"
     objecttolerance="10"
     gridtolerance="10"
     guidetolerance="10"
     inkscape:pageopacity="0"
     inkscape:pageshadow="2"
     inkscape:window-width="1920"
     inkscape:window-height="1125"
     id="namedview4"
     showgrid="false"
     inkscape:zoom="1.0498771"
     inkscape:cx="628.22293"
     inkscape:cy="75.949562"
     inkscape:window-x="0"
     inkscape:window-y="0"
     inkscape:window-maximized="1"
     inkscape:current-layer="g16"
     fit-margin-top="5"
     fit-margin-left="5"
     fit-margin-bottom="5"
     fit-margin-right="5" /><g
     transform="matrix(2.9750633,0,0,-2.9750633,246.76441,1075.6739)"
     id="g16"
     style="stroke:#000000;stroke-width:0.33612731;stroke-miterlimit:4;stroke-dasharray:none;stroke-opacity:1"><g
       transform="matrix(0.58520886,0,0,0.58520886,-132.04202,61.155189)"
       id="g7610"><g
         id="g12"><g
           clip-path="url(#clipPath16-6)"
           id="g14"><g
             transform="translate(545.1885,380.7451)"
             id="g20"><path
               inkscape:connector-curvature="0"
               id="path22"
               style="fill:#ffffff;fill-opacity:1;fill-rule:nonzero;stroke:none"
               d="m 0,0 c 1.957,11.736 0.652,112.814 0.652,112.814 0,11.085 -5.869,12.39 -5.869,12.39 l 0,-0.002 c -0.008,0.005 -0.015,0.009 -0.023,0.014 l 0.023,0 c 0,0 -4.502,4.502 -9.799,4.502 l -427.403,0 c -5.296,0 -9.705,-4.514 -9.705,-4.514 l 0.009,0 c -0.003,-10e-4 -0.007,-0.002 -0.009,-0.004 l 0,0.004 c 0,0 -5.869,-1.305 -5.869,-12.39 0,0 -1.304,-101.078 0.652,-112.814 l 0.016,-0.008 c 0.003,-0.031 1.962,-23.519 16.643,-29.849 -0.704,0.375 0.254,-0.077 0.254,-0.077 l 423.262,0 c 0,0 0.59,0.278 0.488,0.209 -0.08,-0.035 -0.154,-0.076 -0.234,-0.109 0,0 0.062,0.02 0.178,0.074 -0.041,-0.023 -0.096,-0.053 -0.178,-0.097 0.441,0.191 0.869,0.398 1.289,0.619 13.752,6.955 15.607,29.23 15.607,29.23 l -0.254,-0.012 0,0.006 L 0,0 Z" /></g><g
             transform="translate(93.0645,505.9492)"
             id="g24"><path
               inkscape:connector-curvature="0"
               id="path26"
               style="fill:#9e9c9d;fill-opacity:1;fill-rule:nonzero;stroke:none"
               d="m 0,0 c 0,0 -5.869,-1.305 -5.869,-12.39 0,0 -1.304,-101.077 0.652,-112.814 l 6.195,-0.326 c 0,0 -2.934,6.195 -0.978,125.53" /></g><g
             transform="translate(87.8638,380.7373)"
             id="g28"><path
               inkscape:connector-curvature="0"
               id="path30"
               style="fill:#918f90;fill-opacity:1;fill-rule:nonzero;stroke:none"
               d="m 0,0 c 0,0 1.969,-23.656 16.896,-29.825 0,0 -7.15,2.089 -10.717,29.507 L 0,0 Z" /></g><g
             transform="translate(539.9717,505.9492)"
             id="g32"><path
               inkscape:connector-curvature="0"
               id="path34"
               style="fill:#9e9c9d;fill-opacity:1;fill-rule:nonzero;stroke:none"
               d="m 0,0 c 0,0 5.869,-1.305 5.869,-12.39 0,0 1.305,-101.077 -0.652,-112.814 l -6.196,-0.326 c 0,0 2.934,6.195 0.979,125.53" /></g><g
             transform="translate(545.1729,380.7373)"
             id="g36"><path
               inkscape:connector-curvature="0"
               id="path38"
               style="fill:#918f90;fill-opacity:1;fill-rule:nonzero;stroke:none"
               d="m 0,0 c 0,0 -1.969,-23.656 -16.896,-29.825 0,0 7.15,2.089 10.716,29.507 L 0,0 Z" /></g><g
             transform="translate(104.5068,350.8877)"
             id="g40"><path
               inkscape:connector-curvature="0"
               id="path42-6"
               style="fill:#bdbcbc;fill-opacity:1;fill-rule:nonzero;stroke:none"
               d="M 0,0 C 0.161,-0.086 0.253,-0.117 0.253,-0.117 0.167,-0.081 0.086,-0.037 0,0" /></g><g
             transform="translate(528.2764,350.8877)"
             id="g44"><path
               inkscape:connector-curvature="0"
               id="path46"
               style="fill:#bdbcbc;fill-opacity:1;fill-rule:nonzero;stroke:none"
               d="m 0,0 c -0.086,-0.037 -0.166,-0.081 -0.254,-0.117 0,0 0.094,0.031 0.254,0.117" /></g><g
             id="g48"><g
               id="g50" /><g
               id="g56"><g
                 id="g58"
                 clip-path="url(#clipPath52-6)"><g
                   id="g60"
                   transform="translate(538.7412,380.4189)"><path
                     inkscape:connector-curvature="0"
                     id="path62"
                     style="fill:#bdbcbc;fill-opacity:1;fill-rule:nonzero;stroke:none"
                     d="m 0,0 -444.699,0 -6.178,0.318 c 0,0 1.951,-23.514 16.643,-29.849 -0.705,0.376 0.253,-0.075 0.253,-0.075 l 423.262,0 c 0,0 0.959,0.451 0.254,0.075 C 4.227,-23.196 6.178,0.318 6.178,0.318 L 0,0 Z" /></g></g></g></g><g
             transform="translate(530.1729,510.4629)"
             id="g64"><path
               inkscape:connector-curvature="0"
               id="path66"
               style="fill:#bdbcbc;fill-opacity:1;fill-rule:nonzero;stroke:none"
               d="m 0,0 -427.403,0 c -5.296,0 -9.798,-4.502 -9.798,-4.502 l 447,0 C 9.799,-4.502 5.297,0 0,0" /></g><g
             transform="translate(121.5498,352.8389)"
             id="g68"><path
               inkscape:connector-curvature="0"
               id="path70"
               style="fill:#231f20;fill-opacity:1;fill-rule:nonzero;stroke:none"
               d="M 0,0 C 0.199,-0.13 0.316,-0.18 0.316,-0.18 0.208,-0.123 0.105,-0.061 0,0" /></g><g
             transform="translate(474.1846,351.9355)"
             id="g72"><path
               inkscape:connector-curvature="0"
               id="path74"
               style="fill:#231f20;fill-opacity:1;fill-rule:nonzero;stroke:none"
               d="M 0,0 C 0.326,0.081 0.762,0.769 1.24,1.781 0.506,0.694 0,0 0,0" /></g><g
             transform="translate(113.8999,366.0566)"
             id="g76"><path
               inkscape:connector-curvature="0"
               id="path78-1"
               style="fill:#231f20;fill-opacity:1;fill-rule:nonzero;stroke:none"
               d="m 0,0 c 0,0 1.056,-9.468 7.65,-13.218 -0.937,0.612 -3.813,3.11 -6.202,11.77 l 182.542,0 0,-13.12 1.375,0 0,13.12 179.99,0 c 0,0 -2.178,-7.399 -3.83,-10.892 1.996,2.954 5.738,8.898 6.002,12.34 L 0,0 Z" /></g></g></g><g
         id="g80"><g
           clip-path="url(#clipPath84)"
           id="g82"><g
             id="g88"><g
               id="g90"><path
                 inkscape:connector-curvature="0"
                 id="path98"
                 style="fill:url(#linearGradient92);stroke:none"
                 d="m 97.536,389.927 438.786,0 0,9.818 -438.786,0 0,-9.818 z" /></g></g></g></g><g
         id="g100"><g
           clip-path="url(#clipPath104)"
           id="g102"><g
             transform="translate(501.0264,356.9004)"
             id="g108"><path
               inkscape:connector-curvature="0"
               id="path110"
               style="fill:#7595a3;fill-opacity:1;fill-rule:nonzero;stroke:none"
               d="m 0,0 11.471,0 c 0,0 2.369,3.367 2.617,6.234 l -12.342,0 C 1.746,6.234 1.371,2.742 0,0" /></g><g
             transform="translate(97.5215,366.7363)"
             id="g112"><path
               inkscape:connector-curvature="0"
               id="path114-8"
               style="fill:#e9e9e9;fill-opacity:1;fill-rule:nonzero;stroke:none"
               d="M 0,0 438.792,0 438.616,-0.813 0.59,-0.813 0,0 Z" /></g></g></g></g></g></svg>