<svg xmlns="http://www.w3.org/2000/svg" xmlns:xlink="http://www.w3.org/1999/xlink" version="1.1" x="0px" y="0px" viewBox="0 0 130 162.5" style="enable-background:new 0 0 130 130;" xml:space="preserve"><g><path class="st0" d="M123.4648438,28.8381348H6.5351563C2.9316406,28.8381348,0,31.6228027,0,35.0461426v8.003418   c0,12.1303711,2.1738281,24.0805664,6.4614258,35.519043c0.9008789,2.4042969,3.3134766,4.0195313,6.0029297,4.0195313h11.0361328   h83h11.0351563c2.6894531,0,5.1020508-1.6152344,6.003418-4.0195313C127.8261719,67.1296387,130,55.1794434,130,43.0495605   v-8.003418C130,31.6228027,127.0683594,28.8381348,123.4648438,28.8381348z M106.1225586,80.5881348H23.8798828   c-2.7792969-2.4970703-3.8261719-4.4077148-3.6972656-6.875h89.5454102   C109.6611328,76.0856934,108.8974609,78.0964355,106.1225586,80.5881348z M121.6660156,77.8664551   c-0.6103516,1.6279297-2.2700195,2.7216797-4.1303711,2.7216797h-8.5980835   c2.1085815-2.3540039,2.9048462-4.6807861,2.7821655-7.9130859c-0.0205078-0.5371094-0.4619141-0.9619141-0.9995117-0.9619141   H19.2802734c-0.4956055,0-0.9165039,0.3632813-0.9892578,0.8535156c-0.4974976,3.3647461,0.6517944,5.7766113,2.7315674,8.0214844   h-8.5582275c-1.8603516,0-3.5200195-1.09375-4.1298828-2.7216797C5.9624634,71.5384521,4.2748413,65.0471191,3.2332153,58.458252   h123.5336914C125.7253418,65.046875,124.0380249,71.5383301,121.6660156,77.8664551z M128,43.0495605   c0,4.5007324-0.3080444,8.9758301-0.9155884,13.4086914H2.9156494C2.3081055,52.0255127,2,47.550293,2,43.0495605v-8.003418   c0-2.3203125,2.034668-4.2080078,4.5351563-4.2080078h116.9296875c2.5004883,0,4.5351563,1.8876953,4.5351563,4.2080078V43.0495605   z"/><path class="st0" d="M56.4169922,68.7941895h17.1665039c2.0444336,0,3.7080078-1.6635742,3.7080078-3.7084961   s-1.6635742-3.7084961-3.7080078-3.7084961H56.4169922c-2.0449219,0-3.7084961,1.6635742-3.7084961,3.7084961   S54.3720703,68.7941895,56.4169922,68.7941895z M56.4169922,63.3771973h17.1665039   c0.9418945,0,1.7080078,0.7666016,1.7080078,1.7084961s-0.7661133,1.7084961-1.7080078,1.7084961H56.4169922   c-0.9418945,0-1.7084961-0.7666016-1.7084961-1.7084961S55.4750977,63.3771973,56.4169922,63.3771973z"/><path class="st0" d="M97.9311523,101.1618652c0.1533203,0,0.309082-0.0351563,0.4550781-0.1103516   c0.4916992-0.2519531,0.6855469-0.8544922,0.4335938-1.3457031l-5.640625-11   c-0.2509766-0.4916992-0.8549805-0.6879883-1.3457031-0.4335938c-0.4916992,0.2519531-0.6855469,0.8544922-0.4335938,1.3457031   l5.640625,11C97.2172852,100.963623,97.5678711,101.1618652,97.9311523,101.1618652z"/><path class="st0" d="M75.9755859,101.1618652c0.0556641,0,0.1123047-0.0043945,0.1694336-0.0141602   c0.5444336-0.0932617,0.9101563-0.6098633,0.8173828-1.1542969l-1.8798828-11   c-0.0927734-0.543457-0.6020508-0.9111328-1.1542969-0.8173828c-0.5444336,0.0932617-0.9101563,0.6098633-0.8173828,1.1542969   l1.8798828,11C75.0742188,100.817627,75.4970703,101.1618652,75.9755859,101.1618652z"/><path class="st0" d="M53.8549805,101.1477051c0.0571289,0.0097656,0.1137695,0.0141602,0.1694336,0.0141602   c0.4785156,0,0.9013672-0.3442383,0.9848633-0.831543l1.8798828-11c0.0927734-0.5444336-0.2729492-1.0610352-0.8173828-1.1542969   c-0.5458984-0.0942383-1.0610352,0.2739258-1.1542969,0.8173828l-1.8798828,11   C52.9448242,100.5378418,53.3105469,101.0544434,53.8549805,101.1477051z"/><path class="st0" d="M32.0693359,101.1618652c0.3632813,0,0.7138672-0.1982422,0.890625-0.5439453l5.6401367-11   c0.2519531-0.4912109,0.0581055-1.09375-0.4335938-1.3457031c-0.4916992-0.2529297-1.0942383-0.0576172-1.3457031,0.4335938   l-5.6401367,11c-0.2519531,0.4912109-0.0581055,1.09375,0.4335938,1.3457031   C31.7602539,101.126709,31.9160156,101.1618652,32.0693359,101.1618652z"/></g></svg>