<svg xmlns="http://www.w3.org/2000/svg" viewBox="0 0 66 47.5" x="0px" y="0px"><path fill="#000000" fill-rule="evenodd" d="M466.971076,553 C466.453459,561.923379 459.053146,569 450,569 C440.946854,569 433.546541,561.923379 433.028924,553 L418,553 C417.447715,553 417,552.552285 417,552 C417,551.447715 417.447715,551 418,551 L482,551 C482.552285,551 483,551.447715 483,552 C483,552.552285 482.552285,553 482,553 L466.971076,553 L466.971076,553 Z M450,567 C457.948243,567 464.452609,560.818032 464.967195,553 L435.032805,553 C435.547391,560.818032 442.051757,567 450,567 Z M427.98334,565.866025 L419.323085,570.866025 C418.168385,571.532692 417.168385,569.800641 418.323085,569.133975 L426.98334,564.133975 C428.13804,563.467308 429.13804,565.199359 427.98334,565.866025 Z M473.01666,564.133975 L481.676915,569.133975 C482.831615,569.800641 481.831615,571.532692 480.676915,570.866025 L472.01666,565.866025 C470.86196,565.199359 471.86196,563.467308 473.01666,564.133975 Z M463.866025,574.01666 L468.866025,582.676915 C469.532692,583.831615 467.800641,584.831615 467.133975,583.676915 L462.133975,575.01666 C461.467308,573.86196 463.199359,572.86196 463.866025,574.01666 Z M437.866025,575.01666 L432.866025,583.676915 C432.199359,584.831615 430.467308,583.831615 431.133975,582.676915 L436.133975,574.01666 C436.800641,572.86196 438.532692,573.86196 437.866025,575.01666 Z M449,578 C449,577.447715 449.447715,577 450,577 C450.552285,577 451,577.447715 451,578 L451,588 C451,588.552285 450.552285,589 450,589 C449.447715,589 449,588.552285 449,588 L449,578 Z" transform="translate(-417 -551)"/></svg>