<svg height="512" viewBox="0 0 128 128" width="512" xmlns="http://www.w3.org/2000/svg"><g><path d="m102.875 40.625a38.875 38.875 0 1 0 -62 31.248v11.235h46.25v-11.235a38.816 38.816 0 0 0 15.75-31.248z" fill="#ecf0f1"/><path d="m38.375 83.108h51.25a6 6 0 0 1 6 6v6.758a0 0 0 0 1 0 0h-63.25a0 0 0 0 1 0 0v-6.758a6 6 0 0 1 6-6z" fill="#464f5d"/><path d="m32.375 95.867h63.25a0 0 0 0 1 0 0v6.758a6 6 0 0 1 -6 6h-51.25a6 6 0 0 1 -6-6v-6.758a0 0 0 0 1 0 0z" fill="#596475"/><path d="m40.875 108.625h46.25a0 0 0 0 1 0 0v7.622a10 10 0 0 1 -10 10h-26.25a10 10 0 0 1 -10-10v-7.622a0 0 0 0 1 0 0z" fill="#fec400"/><path d="m64 54.629c5.219 0 8.187-5.871 8.187-5.871l-8.187-10.008-8.188 10.008s2.969 5.871 8.188 5.871z" fill="#fdd7ad"/><path d="m64 54.629c-5.219 0-8.188-5.871-8.188-5.871v34.35h16.375v-34.35s-2.968 5.871-8.187 5.871z" fill="#fec400"/><path d="m62.25 54.4v28.708h3.5v-28.708a6.716 6.716 0 0 1 -3.5 0z" fill="#ff8c00"/><g fill="#fec400"><path d="m64 28.335a1.751 1.751 0 0 1 -1.75-1.75v-8.96a1.75 1.75 0 0 1 3.5 0v8.96a1.751 1.751 0 0 1 -1.75 1.75z"/><path d="m72.6 31.9a1.75 1.75 0 0 1 -1.238-2.987l6.338-6.338a1.75 1.75 0 0 1 2.475 2.475l-6.336 6.335a1.743 1.743 0 0 1 -1.239.515z"/><path d="m85.125 40.5h-8.96a1.75 1.75 0 0 1 0-3.5h8.96a1.75 1.75 0 0 1 0 3.5z"/><path d="m51.835 40.5h-8.96a1.75 1.75 0 0 1 0-3.5h8.96a1.75 1.75 0 1 1 0 3.5z"/><path d="m55.4 31.9a1.741 1.741 0 0 1 -1.237-.513l-6.338-6.337a1.75 1.75 0 0 1 2.475-2.475l6.335 6.336a1.75 1.75 0 0 1 -1.235 2.989z"/></g></g></svg>