<?xml version="1.0" encoding="iso-8859-1"?>
<!-- Generator: Adobe Illustrator 19.0.0, SVG Export Plug-In . SVG Version: 6.00 Build 0)  -->
<svg version="1.1" id="Layer_1" xmlns="http://www.w3.org/2000/svg" xmlns:xlink="http://www.w3.org/1999/xlink" x="0px" y="0px"
	 viewBox="0 0 508 508" style="enable-background:new 0 0 508 508;" xml:space="preserve">
<circle style="fill:#FFD05B;" cx="254" cy="254" r="254"/>
<rect x="107.6" y="109.2" style="fill:#FFFFFF;" width="293.2" height="219.6"/>
<g>
	<rect x="122.8" y="222" style="fill:#84DBFF;" width="47.6" height="42.4"/>
	<rect x="122.8" y="173.6" style="fill:#84DBFF;" width="47.6" height="42.4"/>
	<rect x="337.6" y="173.6" style="fill:#84DBFF;" width="47.6" height="42.4"/>
	<rect x="230.4" y="270.8" style="fill:#84DBFF;" width="47.6" height="42.4"/>
	<rect x="122.8" y="270.8" style="fill:#84DBFF;" width="47.6" height="42.4"/>
	<rect x="176.8" y="270.8" style="fill:#84DBFF;" width="47.6" height="42.4"/>
	<rect x="337.6" y="124.8" style="fill:#84DBFF;" width="47.6" height="42.4"/>
	<rect x="284" y="124.8" style="fill:#84DBFF;" width="47.6" height="42.4"/>
	<rect x="176.8" y="124.8" style="fill:#84DBFF;" width="47.6" height="42.4"/>
	<rect x="230.4" y="124.8" style="fill:#84DBFF;" width="47.6" height="42.4"/>
	<rect x="122.8" y="124.8" style="fill:#84DBFF;" width="47.6" height="42.4"/>
	<rect x="230.4" y="222" style="fill:#84DBFF;" width="47.6" height="42.4"/>
	<rect x="284" y="222" style="fill:#84DBFF;" width="47.6" height="42.4"/>
	<rect x="230.4" y="173.6" style="fill:#84DBFF;" width="47.6" height="42.4"/>
	<rect x="284" y="173.6" style="fill:#84DBFF;" width="47.6" height="42.4"/>
	<rect x="176.8" y="173.6" style="fill:#84DBFF;" width="47.6" height="42.4"/>
	<rect x="337.6" y="222" style="fill:#84DBFF;" width="47.6" height="42.4"/>
	<rect x="337.6" y="270.8" style="fill:#84DBFF;" width="47.6" height="42.4"/>
	<rect x="284" y="270.8" style="fill:#84DBFF;" width="47.6" height="42.4"/>
	<rect x="176.8" y="222" style="fill:#84DBFF;" width="47.6" height="42.4"/>
</g>
<path style="fill:#F1543F;" d="M418.4,120.8l-135.6-8v2.8c0,0,46.4,139.2,86.8,182c-4.4,19.2-10.4,59.6-18.4,136.4
	c0,0,43.6,34.8,67.2,16.4L412.8,274L418.4,120.8z"/>
<path style="fill:#CED5E0;" d="M413.2,285.6l-0.4-11.6l0.8-17.6l0,0c-8,22.4-43.6,41.2-43.6,41.2c-1.2,5.6-2.8,12.8-4.4,22.4
	C386,311.2,402.8,296,413.2,285.6z"/>
<path style="fill:#F1543F;" d="M91.2,120.8l135.6-8v2.8c0,0-46.4,139.2-86.8,182c4.4,19.2,10.4,59.6,18.4,136.4
	c0,0-43.6,34.8-67.2,16.4l6-176.4L91.2,120.8z"/>
<g>
	<path style="fill:#CED5E0;" d="M96.8,285.6l0.4-11.6l-0.8-17.6l0,0C104,278.8,140,298,140,298c1.2,5.6,2.8,12.8,4.4,22.4
		C123.6,311.2,106.8,296,96.8,285.6z"/>
	<rect x="78" y="52" style="fill:#CED5E0;" width="352.4" height="10.8"/>
</g>
<path style="fill:#FF7058;" d="M78,62.8v58.8c0,6,4.8,11.2,11.2,11.2c6,0,11.2-4.8,11.2-11.2c0,6,4.8,11.2,11.2,11.2
	s11.2-4.8,11.2-11.2c0,6,4.8,11.2,11.2,11.2c6,0,11.2-4.8,11.2-11.2c0,6,4.8,11.2,11.2,11.2c6,0,11.2-4.8,11.2-11.2
	c0,6,4.8,11.2,11.2,11.2c6,0,11.2-4.8,11.2-11.2c0,6,4.8,11.2,11.2,11.2c6,0,11.2-4.8,11.2-11.2c0,6,4.8,11.2,11.2,11.2
	s11.2-4.8,11.2-11.2c0,6,4.8,11.2,11.2,11.2c6,0,11.2-4.8,11.2-11.2c0,6,4.8,11.2,11.2,11.2c6,0,11.2-4.8,11.2-11.2
	c0,6,4.8,11.2,11.2,11.2c6,0,11.2-4.8,11.2-11.2c0,6,4.8,11.2,11.2,11.2s11.2-4.8,11.2-11.2c0,6,4.8,11.2,11.2,11.2
	c6,0,11.2-4.8,11.2-11.2c0,6,4.8,11.2,11.2,11.2c6,0,11.2-4.8,11.2-11.2c0,6,4.8,11.2,11.2,11.2c6,0,11.2-4.8,11.2-11.2
	c0,6,4.8,11.2,11.2,11.2c6,0,11.2-4.8,11.2-11.2c0,6,4.8,11.2,11.2,11.2s11.2-4.8,11.2-11.2V62.8H78z"/>
<g>
</g>
<g>
</g>
<g>
</g>
<g>
</g>
<g>
</g>
<g>
</g>
<g>
</g>
<g>
</g>
<g>
</g>
<g>
</g>
<g>
</g>
<g>
</g>
<g>
</g>
<g>
</g>
<g>
</g>
</svg>
