<svg height="512pt" viewBox="0 0 512 512" width="512pt" xmlns="http://www.w3.org/2000/svg"><path d="m512 256c0 141.386719-114.613281 256-256 256s-256-114.613281-256-256 114.613281-256 256-256 256 114.613281 256 256zm0 0" fill="#a8d32a"/><path d="m495.65625 165.847656-74.753906-74.75-160.152344 160.152344-155.34375-155.34375-14.40625 14.40625 155.34375 155.34375-155.34375 155.34375 74.539062 74.539062c28.128907 10.628907 58.609376 16.460938 90.460938 16.460938 141.386719 0 256-114.613281 256-256 0-31.734375-5.789062-62.109375-16.34375-90.152344zm0 0" fill="#93bf00"/><path d="m401.019531 100.667969v48.984375l-29.003906 19.335937h-232.03125l-29.003906-19.335937v-48.984375zm0 0" fill="#ff4b00"/><path d="m401.019531 100.667969v48.984375l-29.003906 19.335937h-116.015625v-68.320312zm0 0" fill="#dd3400"/><path d="m381.296875 207.273438-71.734375 194.390624h-107.125l-71.734375-194.390624 96.292969-57.621094h58.007812zm0 0" fill="#ffd400"/><path d="m381.296875 207.273438-71.734375 194.390624h-53.5625v-252.011718h29.003906zm0 0" fill="#fdbf00"/><path d="m91 91h329.355469v19.335938h-329.355469zm0 0" fill="#4a696f"/><path d="m236.664062 275.335938h38.671876v96.679687h-38.671876zm0 0" fill="#b35f49"/><path d="m256 91h164.355469v19.335938h-164.355469zm0 0" fill="#384949"/><path d="m256 275.335938h19.335938v96.679687h-19.335938zm0 0" fill="#804231"/><path d="m377.421875 242.070312-15.535156-15.535156-52.265625 175.128906h91.398437v-135.996093zm0 0" fill="#dd3400"/><path d="m285.003906 149.652344v9.667968c0 57.78125 46.34375 104.851563 103.804688 106.21875l12.210937-15.515624v-100.371094zm0 0" fill="#ff4b00"/><path d="m401.019531 265.667969v-15.644531l-5.34375-2.671876c-20.554687-10.28125-33.328125-30.9375-33.328125-53.917968v-5.109375h-19.335937v5.109375c0 30.351562 16.863281 57.636718 44.015625 71.214844l1.78125.890624c.851562.019532 1.683594.128907 2.542968.128907zm0 0" fill="#dd3400"/><path d="m150.109375 226.539062-39.128906 39.128907v135.996093h91.394531zm0 0" fill="#ff4b00"/><path d="m110.980469 149.652344v100.371094l12.210937 15.515624c57.460938-1.367187 103.804688-48.4375 103.804688-106.21875v-9.667968zm0 0" fill="#ff7816"/><path d="m168.988281 193.433594v-5.109375h-19.335937v5.109375c0 22.976562-12.773438 43.636718-33.328125 53.917968l-5.34375 2.671876v15.644531h9.667969c.859374 0 1.691406-.109375 2.542968-.128907 1.933594-1.761718 45.796875-19.660156 45.796875-72.105468zm0 0" fill="#ff4b00"/><path d="m421 364.667969v56.332031h-330v-56.332031c0-22.621094 19.015625-40.992188 41.636719-40.992188h.195312c22.621094 0 40.992188 18.371094 40.992188 40.992188 0-22.621094 18.367187-40.992188 40.992187-40.992188h.191406c22.625 0 40.992188 18.371094 40.992188 40.992188 0-22.621094 18.371094-40.992188 40.992188-40.992188h.195312c22.621094 0 40.992188 18.371094 40.992188 40.992188 0-22.621094 18.367187-40.992188 40.992187-40.992188h.191406c22.621094 0 41.636719 18.371094 41.636719 40.992188zm0 0" fill="#3e5959"/><path d="m421 364.667969v56.332031h-165v-56.332031c0-22.621094 18.367188-40.992188 40.992188-40.992188h.195312c22.621094 0 40.992188 18.371094 40.992188 40.992188 0-22.621094 18.367187-40.992188 40.992187-40.992188h.191406c22.621094 0 41.636719 18.371094 41.636719 40.992188zm0 0" fill="#384949"/><path d="m207.660156 265.667969h96.679688v19.335937h-96.679688zm0 0" fill="#b35f49"/><path d="m256 265.667969h48.339844v19.335937h-48.339844zm0 0" fill="#99503d"/></svg>