<svg height="512pt" viewBox="0 0 512 512" width="512pt" xmlns="http://www.w3.org/2000/svg" xmlns:xlink="http://www.w3.org/1999/xlink"><linearGradient id="a" gradientUnits="userSpaceOnUse" x1="74.9807" x2="437.0193" y1="74.9807" y2="437.0193"><stop offset="0" stop-color="#ffe682"/><stop offset="1" stop-color="#fbbd57"/></linearGradient><linearGradient id="b"><stop offset="0" stop-color="#ff443e"/><stop offset="1" stop-color="#d40b02"/></linearGradient><linearGradient id="c" gradientUnits="userSpaceOnUse" x1="339.0282" x2="403.1308" xlink:href="#b" y1="323.5004" y2="323.5004"/><linearGradient id="d"><stop offset="0" stop-color="#d40b02"/><stop offset="1" stop-color="#9f0802"/></linearGradient><linearGradient id="e" gradientUnits="userSpaceOnUse" x1="302.3981" x2="412.2883" xlink:href="#d" y1="222.789" y2="222.789"/><linearGradient id="f" gradientUnits="userSpaceOnUse" x1="338.4177" x2="412.2883" xlink:href="#b" y1="145.4993" y2="145.4993"/><linearGradient id="g" gradientUnits="userSpaceOnUse" x1="108.8692" x2="172.9718" xlink:href="#b" y1="323.5004" y2="323.5004"/><linearGradient id="h" gradientUnits="userSpaceOnUse" x1="99.7117" x2="209.6019" xlink:href="#d" y1="222.789" y2="222.789"/><linearGradient id="i" gradientUnits="userSpaceOnUse" x1="99.7117" x2="173.5823" xlink:href="#b" y1="145.4993" y2="145.4993"/><linearGradient id="j" gradientUnits="userSpaceOnUse" x1="207.2053" x2="304.7947" xlink:href="#b" y1="75.2462" y2="172.8356"/><linearGradient id="k" gradientUnits="userSpaceOnUse" x1="229.3127" x2="282.6873" xlink:href="#d" y1="89.7689" y2="143.1435"/><path d="m512 256c0 141.386719-114.613281 256-256 256s-256-114.613281-256-256 114.613281-256 256-256 256 114.613281 256 256zm0 0" fill="url(#a)"/><path d="m375.65625 412.289062h-36.628906v-177.578124h64.105468zm0 0" fill="url(#c)"/><path d="m412.289062 412.289062h-36.632812v-177.578124l36.632812 56.21875zm0 0" fill="#ff443e"/><path d="m412.289062 191.277344v99.652344c-60.691406 0-109.890624-49.199219-109.890624-109.890626v-26.390624h73.257812zm0 0" fill="url(#e)"/><path d="m412.289062 191.277344c-.203124.003906-.40625.007812-.613281.007812-40.457031 0-73.257812-32.796875-73.257812-73.257812l27.472656-18.316406h46.398437zm0 0" fill="url(#f)"/><path d="m136.34375 412.289062h36.628906v-177.578124h-64.105468zm0 0" fill="url(#g)"/><path d="m99.710938 412.289062h36.632812v-177.578124l-36.632812 56.21875zm0 0" fill="#ff443e"/><path d="m99.710938 191.277344v99.652344c60.691406 0 109.890624-49.199219 109.890624-109.890626v-26.390624h-73.257812zm0 0" fill="url(#h)"/><path d="m99.710938 191.277344c.203124.003906.40625.007812.613281.007812 40.457031 0 73.257812-32.796875 73.257812-73.257812l-27.472656-18.316406h-46.398437zm0 0" fill="url(#i)"/><path d="m329.261719 99.710938-84.828125 77.117187-61.695313-77.117187h-36.628906v18.316406c0 60.691406 49.199219 109.890625 109.890625 109.890625s109.890625-49.199219 109.890625-109.890625v-18.316406zm0 0" fill="#ff443e"/><path d="m292.628906 99.710938-50.71875 33.8125-22.539062-33.8125h-36.632813v18.316406c0 40.457031 32.804688 73.257812 73.261719 73.257812s73.261719-32.800781 73.261719-73.257812v-18.316406zm0 0" fill="url(#j)"/><path d="m256 99.710938h-36.628906v18.316406c0 20.230468 16.398437 36.628906 36.628906 36.628906s36.628906-16.398438 36.628906-36.628906v-18.316406zm0 0" fill="url(#k)"/></svg>