<svg width="131" height="215" xmlns="http://www.w3.org/2000/svg" enable-background="new 0 0 256 256">

 <g>
  <title>Layer 1</title>
  <g id="svg_1">
   <g id="svg_2" fill="#f9b087">
    <path id="svg_3" d="m35.372,77.058l-19.199,0c-1.381,0 -2.5,-1.119 -2.5,-2.5l0,-19.199c0,-1.381 1.119,-2.5 2.5,-2.5l19.199,0c1.381,0 2.5,1.119 2.5,2.5l0,19.199c0,1.381 -1.119,2.5 -2.5,2.5zm-16.699,-5l14.199,0l0,-14.199l-14.199,0l0,14.199z"/>
    <path id="svg_4" d="m35.372,116.804l-19.199,0c-1.381,0 -2.5,-1.119 -2.5,-2.5l0,-19.199c0,-1.381 1.119,-2.5 2.5,-2.5l19.199,0c1.381,0 2.5,1.119 2.5,2.5l0,19.199c0,1.381 -1.119,2.5 -2.5,2.5zm-16.699,-5l14.199,0l0,-14.199l-14.199,0l0,14.199z"/>
    <path id="svg_5" d="m35.372,156.55l-19.199,0c-1.381,0 -2.5,-1.119 -2.5,-2.5l0,-19.199c0,-1.381 1.119,-2.5 2.5,-2.5l19.199,0c1.381,0 2.5,1.119 2.5,2.5l0,19.199c0,1.381 -1.119,2.5 -2.5,2.5zm-16.699,-5l14.199,0l0,-14.199l-14.199,0l0,14.199z"/>
    <path id="svg_6" d="m35.372,196.296l-19.199,0c-1.381,0 -2.5,-1.119 -2.5,-2.5l0,-19.199c0,-1.381 1.119,-2.5 2.5,-2.5l19.199,0c1.381,0 2.5,1.119 2.5,2.5l0,19.199c0,1.381 -1.119,2.5 -2.5,2.5zm-16.699,-5l14.199,0l0,-14.199l-14.199,0l0,14.199z"/>
   </g>
   <g id="svg_7" fill="#846f75">
    <path id="svg_8" d="m49.045,36.107l-46.545,0c-1.381,0 -2.5,1.119 -2.5,2.5l0,173.917c0,1.381 1.119,2.5 2.5,2.5l46.545,0c1.381,0 2.5,-1.119 2.5,-2.5l0,-173.917c0,-1.381 -1.119,-2.5 -2.5,-2.5zm-2.5,173.917l-41.545,0l0,-168.917l41.545,0l0,168.917z"/>
    <path id="svg_9" d="m115.323,0c-8.558,0 -15.52,6.961 -15.52,15.519l0,183.986c0,5.8 -4.719,10.519 -10.519,10.519s-10.519,-4.719 -10.519,-10.519l0,-185.571c0,-7.683 -6.251,-13.934 -13.935,-13.934l-27.624,0c-7.683,0 -13.934,6.25 -13.934,13.934l0,0.236l-8.044,0c-1.381,0 -2.5,1.119 -2.5,2.5l0,13.688c0,1.381 1.119,2.5 2.5,2.5s2.5,-1.119 2.5,-2.5l0,-11.188l16.088,0l0,11.188c0,1.381 1.119,2.5 2.5,2.5s2.5,-1.119 2.5,-2.5l0,-13.688c0,-1.381 -1.119,-2.5 -2.5,-2.5l-8.044,0l0,-0.236c0,-4.926 4.008,-8.934 8.934,-8.934l27.626,0c4.927,0 8.935,4.008 8.935,8.934l0,185.571c0,8.557 6.962,15.519 15.519,15.519s15.519,-6.961 15.519,-15.519l0,-183.986c0,-5.8 4.719,-10.519 10.52,-10.519c5.8,0 10.519,4.719 10.519,10.519l0,197.005c0,1.381 1.119,2.5 2.5,2.5s2.5,-1.119 2.5,-2.5l0,-197.005c-0.002,-8.557 -6.964,-15.519 -15.521,-15.519z"/>
   </g>
  </g>
 </g>
</svg>