<?xml version="1.0" encoding="iso-8859-1"?>
<!-- Generator: Adobe Illustrator 19.0.0, SVG Export Plug-In . SVG Version: 6.00 Build 0)  -->
<svg version="1.1" id="Layer_1" xmlns="http://www.w3.org/2000/svg" xmlns:xlink="http://www.w3.org/1999/xlink" x="0px" y="0px"
	 viewBox="0 0 508 508" style="enable-background:new 0 0 508 508;" xml:space="preserve">
<circle style="fill:#FFD05B;" cx="254" cy="254" r="254"/>
<path style="fill:#F9B54C;" d="M508,257.6c0-1.2,0-2.4,0-3.6c0-1.2,0-2.4,0-3.6h-74.8v-35.2h72c-0.4-2.4-0.8-5.2-1.2-7.6h-12.4
	v-35.2h3.2c-0.8-2.4-1.6-5.2-2.8-7.6h-58.8V130h42.4c-1.6-2.4-2.8-5.2-4.4-7.6H392v7.6h33.2v35.2H392v7.6h91.6V208H392v7.6h33.2
	v35.2H392v7.6h91.6v35.2H392v7.6h33.2v35.2H392v7.6h91.6v18c2.8-6,5.2-11.6,7.6-17.6v-1.2h0.4c0.8-2.4,2-5.2,2.8-7.6h-61.6v-35.2
	h70.8c0.4-2.4,0.8-5.2,1.2-7.6h-13.6v-35.2L508,257.6L508,257.6z M471.2,385.6c1.6-2.4,2.8-5.2,4.4-7.6H392v7.6h33.2v35.2H392v7.6
	h46c2.4-2.4,4.8-4.8,6.8-7.6h-12v-35.2H471.2z M438,80h-5.2v-5.6c-2.4-2.4-5.2-4.8-7.6-7.2V80H392v7.6h52.8
	C442.8,84.8,440.4,82.4,438,80z M385.2,37.2h-10.4v-6c-2.4-1.2-5.2-2.8-7.6-4v10H257.6V2.4l21.6-1.2C270.8,0.4,262.4,0,254,0
	c-8.4,0-16.8,0.4-25.2,1.2l21.6,1.2v35.2H141.2V27.2c-2.4,1.2-5.2,2.4-7.6,4v6h-10.4c-4,2.4-8,4.8-12,7.6H192v24.4h7.6V44.8h109.2
	v24.4h7.6V44.8h80.8C393.2,42.4,389.2,39.6,385.2,37.2z M374.4,463.2v-24.4h-7.6v24.4H257.6v-24.4H250v24.4H141.2v-24.4h-7.6v24.4
	h-22.4c4,2.8,8,5.2,12,7.6H192v28.8c2.4,0.8,5.2,1.2,7.6,1.6v-30.4h109.2v30.4c2.4-0.4,5.2-1.2,7.6-1.6v-28.8h68.8
	c4-2.4,8-4.8,12-7.6H374.4z M116,385.6V378H32.4c1.6,2.4,2.8,5.2,4.4,7.6h38v35.2h-12c2.4,2.4,4.4,5.2,6.8,7.6h46v-7.6H82.4v-35.2
	H116z M116,130v-7.6H37.2c-1.6,2.4-3.2,5.2-4.8,7.6h42.4v35.2H16c-0.8,2.4-2,4.8-2.8,7.6h3.2V208h-12c-0.4,2.4-0.8,5.2-1.2,7.6h72
	v35.2H0c0,1.2,0,2.4,0,3.6c0,1.2,0,2.4,0,3.6h16.4v35.2H2.8c0.4,2.4,0.8,5.2,1.2,7.6h70.8V336H13.6c0.8,2.4,1.6,5.2,2.8,7.6h0.4v1.2
	c2.4,6,4.8,12,7.6,17.6v-18.8H116V336H82.8v-35.2H116v-7.6H24.4V258H116v-7.6H82.8v-35.2H116v-7.6H24.4v-35.2H116v-7.6H82.8V130H116
	z M82.4,80V67.2c-2.4,2.4-5.2,4.8-7.6,7.2V80H70c-2.4,2.4-4.8,4.8-6.8,7.6H116V80C116,80,82.4,80,82.4,80z"/>
<rect x="116" y="68.4" style="fill:#2B3B4E;" width="276.4" height="370.8"/>
<g>
	<rect x="133.6" y="86.4" style="fill:#324A5E;" width="111.6" height="335.2"/>
	<rect x="262.8" y="86.4" style="fill:#324A5E;" width="111.6" height="335.2"/>
</g>
<g>
	<rect x="273.2" y="96.4" style="fill:#84DBFF;" width="91.2" height="152.4"/>
	<rect x="273.2" y="259.2" style="fill:#84DBFF;" width="91.2" height="152.4"/>
</g>
<g>
	<polygon style="fill:#54C0EB;" points="364.4,96.4 364.4,248.8 273.2,248.8 	"/>
	<polygon style="fill:#54C0EB;" points="364.4,259.2 364.4,411.6 273.2,411.6 	"/>
</g>
<g>
	<rect x="143.6" y="96.4" style="fill:#84DBFF;" width="91.2" height="152.4"/>
	<rect x="143.6" y="259.2" style="fill:#84DBFF;" width="91.2" height="152.4"/>
</g>
<g>
	<polygon style="fill:#54C0EB;" points="234.8,96.4 234.8,248.8 143.6,248.8 	"/>
	<polygon style="fill:#54C0EB;" points="234.8,259.2 234.8,411.6 143.6,411.6 	"/>
</g>
<g>
</g>
<g>
</g>
<g>
</g>
<g>
</g>
<g>
</g>
<g>
</g>
<g>
</g>
<g>
</g>
<g>
</g>
<g>
</g>
<g>
</g>
<g>
</g>
<g>
</g>
<g>
</g>
<g>
</g>
</svg>
