<?xml version="1.0" encoding="iso-8859-1"?>
<!-- Generator: Adobe Illustrator 19.0.0, SVG Export Plug-In . SVG Version: 6.00 Build 0)  -->
<svg version="1.1" id="Capa_1" xmlns="http://www.w3.org/2000/svg" xmlns:xlink="http://www.w3.org/1999/xlink" x="0px" y="0px"
	 viewBox="0 0 512 512" style="enable-background:new 0 0 512 512;" xml:space="preserve">
<circle style="fill:#6AAF50;" cx="256" cy="256" r="256"/>
<path style="fill:#528443;" d="M360.508,101.489c-11.916,0-198.319,0-209.018,0v279.164h-16.079v29.858l100.73,100.729
	C242.695,511.742,249.317,512,256,512c141.385,0,256-114.615,256-256c0-1.022-0.027-2.039-0.039-3.058L360.508,101.489z"/>
<path style="fill:#7E4F1F;" d="M360.508,101.489H151.492v279.164h209.018L360.508,101.489L360.508,101.489z"/>
<path style="fill:#5E3C16;" d="M256,101.489v279.164h104.508V101.489H256z"/>
<rect x="268.395" y="123.878" style="fill:#4AB6BF;" width="66.993" height="153.481"/>
<rect x="176.492" y="123.878" style="fill:#CBE8F2;" width="66.993" height="153.481"/>
<rect x="268.395" y="300.093" style="fill:#4AB6BF;" width="66.993" height="55.43"/>
<rect x="176.492" y="300.093" style="fill:#CBE8F2;" width="66.993" height="55.43"/>
<polygon style="fill:#FFFFFF;" points="176.613,277.363 176.613,239.512 201.82,257.935 223.927,257.935 237.996,265.304 
	243.355,267.984 243.355,277.363 "/>
<polygon style="fill:#E4F3F6;" points="268.394,263.295 285.141,257.935 296.196,263.295 319.308,266.644 330.697,271.333 
	335.387,271.333 335.387,277.363 268.394,277.363 "/>
<polygon style="fill:#FFFFFF;" points="176.613,324.425 196.042,313.037 210.11,337.154 230.208,333.804 277.773,345.193 
	316.293,345.193 335.387,355.531 176.613,355.531 "/>
<polygon style="fill:#E4F3F6;" points="256,355.531 335.387,355.531 316.293,345.193 277.773,345.193 256,339.98 "/>
<rect x="135.413" y="380.649" style="fill:#DF871E;" width="241.174" height="29.86"/>
<rect x="256.04" y="380.649" style="fill:#7E4F1F;" width="120.547" height="29.86"/>
<g>
</g>
<g>
</g>
<g>
</g>
<g>
</g>
<g>
</g>
<g>
</g>
<g>
</g>
<g>
</g>
<g>
</g>
<g>
</g>
<g>
</g>
<g>
</g>
<g>
</g>
<g>
</g>
<g>
</g>
</svg>
