<?xml version="1.0" encoding="iso-8859-1"?>
<!-- Generator: Adobe Illustrator 19.0.0, SVG Export Plug-In . SVG Version: 6.00 Build 0)  -->
<svg version="1.1" id="Layer_1" xmlns="http://www.w3.org/2000/svg" xmlns:xlink="http://www.w3.org/1999/xlink" x="0px" y="0px"
	 viewBox="0 0 512 512" style="enable-background:new 0 0 512 512;" xml:space="preserve">
<path style="fill:#47CEAC;" d="M512,256.006C512,397.402,397.394,512.004,256.004,512C114.606,512.004,0,397.402,0,256.006
	C-0.007,114.61,114.606,0,256.004,0C397.394,0,512,114.614,512,256.006z"/>
<path style="fill:#36BB9A;" d="M512,256.005c0-32.717-6.203-63.967-17.388-92.727c-0.432-0.574-82.8-82.95-83.387-83.387
	c-1.361-1.829-3.436-3.091-5.892-3.091H106.667c-4.128,0-7.467,3.339-7.467,7.467V390.4h-7.467c-4.126,0-7.467,3.34-7.467,7.467
	v29.867c0,2.457,1.262,4.531,3.091,5.892c0.436,0.587,46.429,46.577,47.014,47.014c0.399,0.533,0.862,0.973,1.38,1.379
	c35.857,19.115,76.777,29.983,120.252,29.981C397.394,512.004,512,397.401,512,256.005z"/>
<path style="fill:#F4F6F9;" d="M420.267,390.4H412.8V84.267c0-4.127-3.34-7.467-7.467-7.467H106.667
	c-4.127,0-7.467,3.34-7.467,7.467V390.4h-7.467c-4.127,0-7.467,3.34-7.467,7.467v29.867c0,4.127,3.34,7.467,7.467,7.467h328.533
	c4.127,0,7.467-3.34,7.467-7.467v-29.867C427.733,393.74,424.394,390.4,420.267,390.4z M114.133,91.733h283.733V390.4h-14.933
	V114.133c0-4.127-3.34-7.467-7.467-7.467H136.533c-4.127,0-7.467,3.34-7.467,7.467V390.4h-14.933V91.733z M144,390.4V263.467
	h104.533V390.4H144z M368,121.6v126.933H263.467V121.6H368z M248.533,248.533H144V121.6h104.533V248.533z M263.467,263.467H368
	V390.4H263.467V263.467z M412.8,420.267H99.2v-14.933h313.6V420.267z"/>
<g>
</g>
<g>
</g>
<g>
</g>
<g>
</g>
<g>
</g>
<g>
</g>
<g>
</g>
<g>
</g>
<g>
</g>
<g>
</g>
<g>
</g>
<g>
</g>
<g>
</g>
<g>
</g>
<g>
</g>
</svg>
