<?xml version="1.0" encoding="iso-8859-1"?>
<!-- Generator: Adobe Illustrator 19.0.0, SVG Export Plug-In . SVG Version: 6.00 Build 0)  -->
<svg version="1.1" id="Layer_1" xmlns="http://www.w3.org/2000/svg" xmlns:xlink="http://www.w3.org/1999/xlink" x="0px" y="0px"
	 viewBox="0 0 512.002 512.002" style="enable-background:new 0 0 512.002 512.002;" xml:space="preserve">
<circle style="fill:#FF6262;" cx="256.001" cy="256" r="256"/>
<path style="fill:#FF314F;" d="M512.001,256c0-4.867-0.148-9.697-0.417-14.496l-134.646-135.19L270.942,319.785l-3.07,36.867
	l-132.205,49.569l105.839,105.363c4.799,0.267,9.63,0.417,14.495,0.417C397.385,512,512.001,397.384,512.001,256z"/>
<rect x="142.223" y="113.778" style="fill:#71E2EF;" width="227.556" height="284.444"/>
<rect x="255.432" y="113.778" style="fill:#38C6D9;" width="114.347" height="284.444"/>
<path style="fill:#273B7A;" d="M369.779,103.434H142.223c-5.711,0-10.343,4.632-10.343,10.343v284.444
	c0,5.711,4.632,10.343,10.343,10.343h227.556c5.711,0,10.343-4.632,10.343-10.343V113.778
	C380.122,108.066,375.49,103.434,369.779,103.434z M359.435,245.657h-93.091V124.121h93.091V245.657z M245.657,124.121v121.535
	h-93.091V124.121H245.657z M152.567,266.343h93.091v121.535h-93.091V266.343z M266.344,387.879V266.343h93.091v121.535H266.344z"/>
<path style="fill:#121149;" d="M369.779,103.434H255.427v305.131h114.352c5.711,0,10.343-4.632,10.343-10.343V113.778
	C380.122,108.066,375.49,103.434,369.779,103.434z M359.435,387.879h-93.091V266.343h93.091V387.879z M359.435,245.657h-93.091
	V124.121h93.091V245.657z"/>
<g>
	<circle style="fill:#FFFFFF;" cx="202.336" cy="156.444" r="6.896"/>
	<circle style="fill:#FFFFFF;" cx="305.994" cy="206.007" r="6.896"/>
	<circle style="fill:#FFFFFF;" cx="334.439" cy="163.771" r="6.896"/>
	<circle style="fill:#FFFFFF;" cx="291.341" cy="149.118" r="6.896"/>
	<circle style="fill:#FFFFFF;" cx="220.661" cy="220.66" r="6.896"/>
	<circle style="fill:#FFFFFF;" cx="192.216" cy="348.229" r="6.896"/>
	<circle style="fill:#FFFFFF;" cx="334.439" cy="362.882" r="6.896"/>
	<circle style="fill:#FFFFFF;" cx="291.341" cy="319.785" r="6.896"/>
	<circle style="fill:#FFFFFF;" cx="177.563" cy="216.988" r="6.896"/>
	<circle style="fill:#FFFFFF;" cx="202.336" cy="277.549" r="6.896"/>
	<circle style="fill:#FFFFFF;" cx="319.785" cy="291.34" r="6.896"/>
</g>
<g>
</g>
<g>
</g>
<g>
</g>
<g>
</g>
<g>
</g>
<g>
</g>
<g>
</g>
<g>
</g>
<g>
</g>
<g>
</g>
<g>
</g>
<g>
</g>
<g>
</g>
<g>
</g>
<g>
</g>
</svg>
